<svg xmlns="http://www.w3.org/2000/svg" width="375" viewBox="0 0 375 375" height="375" version="1.0"><defs><clipPath id="a"><path d="M 1.875 52 L 174 52 L 174 323 L 1.875 323 Z M 1.875 52"/></clipPath><clipPath id="b"><path d="M 258 178 L 373.125 178 L 373.125 197 L 258 197 Z M 258 178"/></clipPath></defs><g clip-path="url(#a)"><path fill="#50ACE4" d="M 151.125 194.550781 L 163.496094 194.550781 L 154.746094 203.304688 L 141.863281 203.519531 Z M 154.746094 171.75 L 163.496094 180.492188 L 151.125 180.492188 L 141.863281 171.535156 Z M 8.914062 194.550781 L 41.796875 194.550781 L 24.222656 211.539062 C 21.4375 214.230469 21.355469 218.683594 24.054688 221.480469 C 26.757812 224.265625 31.199219 224.351562 34 221.648438 L 62.023438 194.550781 L 130.898438 194.550781 L 121.265625 203.859375 L 115.777344 203.953125 C 111.898438 204.027344 108.800781 207.21875 108.863281 211.097656 C 108.898438 213.148438 109.800781 214.96875 111.21875 216.230469 C 111.109375 218.113281 111.753906 220.019531 113.160156 221.480469 C 115.859375 224.265625 120.316406 224.351562 123.101562 221.648438 L 127.054688 217.828125 L 140.445312 217.601562 L 91.742188 266.308594 L 52.773438 266.957031 C 48.878906 267.035156 45.796875 270.234375 45.855469 274.117188 C 45.929688 277.996094 49.070312 281.070312 53.011719 281.023438 L 77.441406 280.605469 L 54.191406 303.855469 C 51.4375 306.609375 51.4375 311.058594 54.191406 313.796875 C 56.929688 316.550781 61.382812 316.550781 64.132812 313.796875 L 87.382812 290.546875 L 86.96875 314.988281 C 86.90625 318.871094 89.988281 322.074219 93.871094 322.128906 L 94.003906 322.128906 C 97.824219 322.128906 100.957031 319.0625 101.027344 315.226562 L 101.679688 276.25 L 150.386719 227.539062 L 150.164062 240.933594 L 146.339844 244.886719 C 143.648438 247.675781 143.71875 252.125 146.507812 254.828125 C 147.972656 256.246094 149.898438 256.878906 151.78125 256.769531 C 153.042969 258.175781 154.851562 259.09375 156.886719 259.125 C 160.769531 259.222656 163.972656 256.101562 164.03125 252.207031 L 164.128906 246.722656 L 173.4375 237.089844 L 173.4375 216.859375 L 164.472656 226.125 L 164.699219 213.242188 L 173.4375 204.492188 L 173.4375 170.550781 L 164.699219 161.8125 L 164.472656 148.914062 L 173.4375 158.191406 L 173.4375 137.949219 L 164.128906 128.320312 L 164.03125 122.832031 C 163.972656 118.984375 160.828125 115.921875 157.007812 115.921875 L 156.886719 115.921875 C 154.839844 115.949219 153.042969 116.863281 151.78125 118.28125 C 151.648438 118.269531 151.519531 118.246094 151.398438 118.246094 C 149.640625 118.246094 147.875 118.902344 146.507812 120.222656 C 143.71875 122.914062 143.648438 127.367188 146.339844 130.164062 L 150.164062 134.105469 L 150.386719 147.5 L 101.679688 98.804688 L 101.027344 59.824219 C 100.957031 55.980469 97.824219 52.910156 94.003906 52.910156 L 93.871094 52.910156 C 89.988281 52.980469 86.90625 56.183594 86.96875 60.0625 L 87.382812 84.496094 L 64.132812 61.242188 C 62.761719 59.875 60.953125 59.183594 59.152344 59.183594 C 57.359375 59.183594 55.558594 59.875 54.191406 61.242188 C 51.4375 63.996094 51.4375 68.445312 54.191406 71.183594 L 77.441406 94.4375 L 53.011719 94.019531 L 52.878906 94.019531 C 49.058594 94.019531 45.929688 97.089844 45.855469 100.9375 C 45.796875 104.820312 48.878906 108.019531 52.773438 108.078125 L 91.742188 108.746094 L 140.445312 157.441406 L 127.054688 157.214844 L 123.101562 153.402344 C 121.730469 152.082031 119.980469 151.425781 118.21875 151.425781 C 116.375 151.425781 114.539062 152.140625 113.160156 153.570312 C 111.742188 155.035156 111.109375 156.953125 111.21875 158.84375 C 109.8125 160.105469 108.898438 161.902344 108.863281 163.941406 C 108.800781 167.824219 111.898438 171.027344 115.777344 171.082031 L 121.265625 171.183594 L 130.898438 180.492188 L 62.023438 180.492188 L 34 153.402344 C 32.628906 152.082031 30.867188 151.425781 29.117188 151.425781 C 27.269531 151.425781 25.4375 152.140625 24.054688 153.570312 C 21.355469 156.355469 21.4375 160.8125 24.222656 163.515625 L 41.796875 180.492188 L 8.914062 180.492188 C 5.03125 180.492188 1.875 183.644531 1.875 187.527344 C 1.875 191.40625 5.03125 194.550781 8.914062 194.550781"/></g><path fill="#EF2E33" d="M 185.621094 114.492188 C 180.695312 114.492188 176.699219 110.5 176.699219 105.574219 L 176.699219 8.933594 C 176.699219 4.011719 180.695312 0.015625 185.621094 0.015625 C 190.542969 0.015625 194.535156 4.011719 194.535156 8.933594 L 194.535156 105.574219 C 194.535156 110.5 190.542969 114.492188 185.621094 114.492188"/><path fill="#EF2E33" d="M 185.621094 375.023438 C 180.695312 375.023438 176.699219 371.03125 176.699219 366.105469 L 176.699219 269.46875 C 176.699219 264.542969 180.695312 260.546875 185.621094 260.546875 C 190.542969 260.546875 194.535156 264.542969 194.535156 269.46875 L 194.535156 366.105469 C 194.535156 371.03125 190.542969 375.023438 185.621094 375.023438"/><path fill="#EF2E33" d="M 274.921875 351.097656 C 271.839844 351.097656 268.839844 349.5 267.191406 346.640625 L 218.871094 262.949219 C 216.40625 258.683594 217.867188 253.226562 222.132812 250.765625 C 226.398438 248.300781 231.851562 249.761719 234.3125 254.03125 L 282.632812 337.722656 C 285.097656 341.988281 283.636719 347.441406 279.371094 349.902344 C 277.96875 350.714844 276.433594 351.097656 274.921875 351.097656"/><path fill="#EF2E33" d="M 340.273438 285.730469 C 338.757812 285.730469 337.222656 285.347656 335.816406 284.535156 L 252.128906 236.214844 C 247.859375 233.753906 246.398438 228.300781 248.863281 224.035156 C 251.324219 219.769531 256.785156 218.308594 261.046875 220.773438 L 344.738281 269.089844 C 349.003906 271.550781 350.464844 277.007812 348.003906 281.273438 C 346.351562 284.132812 343.351562 285.730469 340.273438 285.730469"/><g clip-path="url(#b)"><path fill="#EF2E33" d="M 364.203125 196.4375 L 267.566406 196.4375 C 262.640625 196.4375 258.648438 192.445312 258.648438 187.519531 C 258.648438 182.59375 262.640625 178.601562 267.566406 178.601562 L 364.203125 178.601562 C 369.128906 178.601562 373.125 182.59375 373.125 187.519531 C 373.125 192.445312 369.128906 196.4375 364.203125 196.4375"/></g><path fill="#EF2E33" d="M 256.597656 155.464844 C 253.511719 155.464844 250.515625 153.871094 248.863281 151.007812 C 246.398438 146.742188 247.859375 141.285156 252.128906 138.820312 L 335.816406 90.503906 C 340.085938 88.042969 345.539062 89.503906 348.003906 93.769531 C 350.464844 98.035156 349.003906 103.488281 344.738281 105.953125 L 261.046875 154.269531 C 259.640625 155.082031 258.109375 155.464844 256.597656 155.464844"/><path fill="#EF2E33" d="M 226.585938 125.472656 C 225.070312 125.472656 223.535156 125.085938 222.132812 124.277344 C 217.867188 121.816406 216.40625 116.355469 218.871094 112.09375 L 267.191406 28.398438 C 269.652344 24.136719 275.105469 22.675781 279.371094 25.136719 C 283.636719 27.597656 285.097656 33.054688 282.632812 37.320312 L 234.3125 121.011719 C 232.664062 123.871094 229.664062 125.472656 226.585938 125.472656"/><path fill="#EF2E33" d="M 236.140625 187.519531 C 236.140625 215.425781 213.519531 238.035156 185.613281 238.035156 L 185.613281 136.996094 C 213.519531 136.996094 236.140625 159.617188 236.140625 187.519531"/></svg>