<svg xmlns="http://www.w3.org/2000/svg" width="224.88" viewBox="0 0 224.88 225" height="225" version="1.0"><defs><clipPath id="a"><path d="M 100 24.230469 L 105 24.230469 L 105 29 L 100 29 Z M 100 24.230469"/></clipPath><clipPath id="b"><path d="M 200 116 L 207.121094 116 L 207.121094 124 L 200 124 Z M 200 116"/></clipPath><clipPath id="c"><path d="M 109 189 L 115 189 L 115 194.390625 L 109 194.390625 Z M 109 189"/></clipPath><clipPath id="d"><path d="M 18.972656 117 L 24 117 L 24 123 L 18.972656 123 Z M 18.972656 117"/></clipPath></defs><path fill="#6B99D2" d="M 203.589844 212.570312 L 21.070312 212.570312 C 15.332031 212.570312 10.597656 207.839844 10.597656 202.105469 L 10.597656 22.574219 C 10.597656 16.835938 15.332031 12.105469 21.070312 12.105469 L 203.445312 12.105469 C 209.183594 12.105469 213.917969 16.835938 213.917969 22.574219 L 213.917969 201.960938 C 214.0625 207.839844 209.328125 212.570312 203.589844 212.570312"/><path fill="#6B99D2" d="M 203.589844 15.261719 C 207.605469 15.261719 210.90625 18.558594 210.90625 22.574219 L 210.90625 202.105469 C 210.90625 206.121094 207.605469 209.417969 203.589844 209.417969 L 21.070312 209.417969 C 17.050781 209.417969 13.753906 206.121094 13.753906 202.105469 L 13.753906 22.574219 C 13.753906 18.558594 17.050781 15.261719 21.070312 15.261719 L 203.589844 15.261719 M 203.589844 8.523438 L 21.070312 8.523438 C 13.324219 8.523438 7.011719 14.832031 7.011719 22.574219 L 7.011719 202.105469 C 7.011719 209.847656 13.324219 216.15625 21.070312 216.15625 L 203.589844 216.15625 C 211.335938 216.15625 217.648438 209.847656 217.648438 202.105469 L 217.648438 22.574219 C 217.648438 14.832031 211.335938 8.523438 203.589844 8.523438"/><path fill="#FFD76B" d="M 96.792969 52.484375 C 102.425781 50.699219 108.199219 49.8125 114.109375 49.820312 C 115.144531 49.820312 116.183594 49.847656 117.21875 49.902344 C 118.253906 49.953125 119.289062 50.035156 120.320312 50.148438 C 121.351562 50.257812 122.382812 50.394531 123.40625 50.5625 C 124.429688 50.726562 125.449219 50.917969 126.460938 51.140625 C 127.476562 51.359375 128.484375 51.609375 129.484375 51.882812 C 130.484375 52.15625 131.476562 52.460938 132.460938 52.789062 C 133.445312 53.117188 134.421875 53.472656 135.386719 53.851562 C 136.351562 54.234375 137.304688 54.640625 138.25 55.074219 C 139.191406 55.503906 140.125 55.964844 141.042969 56.445312 C 141.960938 56.929688 142.867188 57.4375 143.757812 57.96875 C 144.648438 58.5 145.523438 59.054688 146.386719 59.632812 C 147.246094 60.210938 148.09375 60.8125 148.921875 61.4375 C 149.75 62.0625 150.5625 62.710938 151.355469 63.378906 C 152.152344 64.046875 152.925781 64.734375 153.683594 65.445312 C 154.441406 66.15625 155.179688 66.886719 155.894531 67.636719 C 156.613281 68.386719 157.308594 69.15625 157.984375 69.941406 C 158.664062 70.730469 159.316406 71.535156 159.949219 72.359375 C 160.582031 73.179688 161.191406 74.019531 161.78125 74.875 C 162.367188 75.730469 162.933594 76.601562 163.472656 77.488281 C 164.015625 78.375 164.53125 79.277344 165.023438 80.191406 C 165.515625 81.105469 165.980469 82.03125 166.425781 82.96875 C 166.867188 83.910156 167.28125 84.859375 167.675781 85.820312 C 168.066406 86.785156 168.429688 87.753906 168.769531 88.738281 C 169.105469 89.71875 169.417969 90.707031 169.703125 91.707031 C 169.988281 92.707031 170.25 93.710938 170.480469 94.722656 C 170.710938 95.734375 170.914062 96.753906 171.089844 97.777344 C 171.265625 98.800781 171.414062 99.828125 171.535156 100.859375 C 171.65625 101.890625 171.75 102.921875 171.816406 103.960938 C 171.882812 104.996094 171.917969 106.035156 171.929688 107.070312 C 171.9375 108.109375 171.917969 109.148438 171.871094 110.1875 C 171.824219 111.222656 171.75 112.257812 171.648438 113.292969 C 171.546875 114.324219 171.417969 115.355469 171.257812 116.382812 C 171.101562 117.40625 170.914062 118.429688 170.703125 119.445312 C 170.488281 120.460938 170.25 121.472656 169.980469 122.476562 C 169.714844 123.476562 169.421875 124.472656 169.101562 125.460938 C 168.777344 126.449219 168.433594 127.425781 168.058594 128.394531 C 167.683594 129.363281 167.285156 130.324219 166.859375 131.269531 C 166.433594 132.21875 165.984375 133.152344 165.507812 134.074219 C 165.03125 134.996094 164.53125 135.90625 164.007812 136.804688 C 163.484375 137.699219 162.933594 138.578125 162.363281 139.445312 C 161.792969 140.3125 161.195312 141.164062 160.578125 141.996094 C 159.960938 142.832031 159.320312 143.648438 158.660156 144.449219 C 157.996094 145.246094 157.3125 146.027344 156.609375 146.792969 C 155.90625 147.554688 155.179688 148.296875 154.4375 149.023438 C 153.691406 149.746094 152.929688 150.449219 152.148438 151.132812 C 151.367188 151.8125 150.566406 152.476562 149.75 153.113281 C 148.929688 153.753906 148.097656 154.371094 147.246094 154.964844 C 146.394531 155.558594 145.53125 156.128906 144.648438 156.679688 C 143.765625 157.226562 142.871094 157.75 141.960938 158.25 C 141.050781 158.746094 140.128906 159.222656 139.191406 159.671875 C 138.257812 160.121094 137.3125 160.546875 136.351562 160.945312 C 135.394531 161.34375 134.425781 161.714844 133.449219 162.0625 C 132.46875 162.40625 131.484375 162.726562 130.488281 163.019531 C 129.492188 163.3125 128.488281 163.578125 127.480469 163.816406 C 126.46875 164.054688 125.453125 164.265625 124.433594 164.453125 C 123.410156 164.636719 122.386719 164.792969 121.355469 164.921875 C 120.328125 165.050781 119.292969 165.148438 118.257812 165.222656 C 117.222656 165.296875 116.1875 165.339844 115.152344 165.359375 C 114.113281 165.375 113.074219 165.363281 112.039062 165.324219 C 111.003906 165.285156 109.96875 165.21875 108.933594 165.125 C 107.902344 165.03125 106.871094 164.90625 105.84375 164.757812 C 104.816406 164.605469 103.796875 164.429688 102.777344 164.222656 C 101.761719 164.019531 100.75 163.785156 99.746094 163.527344 C 98.742188 163.265625 97.742188 162.976562 96.753906 162.664062 C 98.351562 162.375 99.9375 162.015625 101.503906 161.585938 C 103.070312 161.160156 104.613281 160.664062 106.140625 160.101562 C 107.664062 159.539062 109.160156 158.910156 110.628906 158.21875 C 112.097656 157.527344 113.535156 156.773438 114.941406 155.953125 C 116.34375 155.136719 117.710938 154.261719 119.039062 153.324219 C 120.367188 152.390625 121.652344 151.398438 122.894531 150.347656 C 124.136719 149.300781 125.328125 148.203125 126.476562 147.050781 C 127.621094 145.898438 128.714844 144.699219 129.757812 143.453125 C 130.800781 142.207031 131.789062 140.917969 132.71875 139.585938 C 133.648438 138.253906 134.519531 136.882812 135.332031 135.472656 C 136.144531 134.066406 136.890625 132.625 137.578125 131.152344 C 138.265625 129.679688 138.886719 128.179688 139.445312 126.652344 C 140 125.125 140.488281 123.574219 140.910156 122.007812 C 141.332031 120.4375 141.6875 118.851562 141.972656 117.25 C 142.253906 115.652344 142.46875 114.042969 142.613281 112.421875 C 142.757812 110.804688 142.832031 109.179688 142.835938 107.554688 C 142.835938 80.039062 122.9375 57.152344 96.792969 52.484375 Z M 96.792969 52.484375"/><path fill="#FFD76B" d="M 56.378906 107.554688 C 56.382812 106.03125 56.445312 104.511719 56.570312 102.992188 C 56.691406 101.472656 56.875 99.964844 57.117188 98.460938 C 57.359375 96.957031 57.660156 95.464844 58.023438 93.984375 C 58.382812 92.503906 58.800781 91.039062 59.277344 89.59375 C 59.75 88.144531 60.285156 86.71875 60.871094 85.3125 C 61.460938 83.910156 62.101562 82.527344 62.800781 81.175781 C 63.496094 79.820312 64.246094 78.496094 65.046875 77.199219 C 65.847656 75.90625 66.699219 74.644531 67.601562 73.417969 C 68.503906 72.1875 69.449219 71 70.445312 69.84375 C 71.441406 68.691406 72.480469 67.582031 73.5625 66.507812 C 74.644531 65.4375 75.769531 64.414062 76.929688 63.429688 C 78.09375 62.449219 79.296875 61.511719 80.535156 60.625 C 81.769531 59.738281 83.042969 58.902344 84.34375 58.113281 C 85.648438 57.328125 86.980469 56.59375 88.339844 55.910156 C 89.703125 55.230469 91.089844 54.601562 92.5 54.03125 C 93.910156 53.460938 95.34375 52.945312 96.792969 52.484375 C 122.9375 57.152344 142.835938 80.039062 142.835938 107.554688 C 142.832031 109.179688 142.757812 110.804688 142.613281 112.421875 C 142.46875 114.042969 142.253906 115.652344 141.972656 117.25 C 141.6875 118.851562 141.332031 120.4375 140.910156 122.007812 C 140.488281 123.578125 140 125.125 139.445312 126.652344 C 138.886719 128.179688 138.265625 129.679688 137.578125 131.152344 C 136.890625 132.625 136.144531 134.066406 135.332031 135.472656 C 134.519531 136.882812 133.648438 138.253906 132.71875 139.585938 C 131.789062 140.917969 130.800781 142.207031 129.757812 143.453125 C 128.714844 144.699219 127.621094 145.898438 126.476562 147.050781 C 125.328125 148.203125 124.136719 149.300781 122.894531 150.347656 C 121.652344 151.398438 120.367188 152.390625 119.039062 153.324219 C 117.710938 154.261719 116.34375 155.136719 114.941406 155.953125 C 113.535156 156.773438 112.097656 157.527344 110.628906 158.21875 C 109.160156 158.910156 107.664062 159.539062 106.140625 160.101562 C 104.613281 160.664062 103.070312 161.160156 101.503906 161.585938 C 99.9375 162.015625 98.351562 162.375 96.753906 162.664062 C 95.300781 162.207031 93.871094 161.691406 92.460938 161.121094 C 91.046875 160.550781 89.660156 159.921875 88.296875 159.242188 C 86.9375 158.5625 85.605469 157.828125 84.300781 157.039062 C 82.996094 156.253906 81.722656 155.417969 80.488281 154.527344 C 79.25 153.640625 78.046875 152.707031 76.882812 151.722656 C 75.71875 150.742188 74.597656 149.714844 73.515625 148.640625 C 72.429688 147.570312 71.394531 146.457031 70.398438 145.304688 C 69.402344 144.148438 68.457031 142.957031 67.554688 141.730469 C 66.65625 140.5 65.804688 139.238281 65.003906 137.941406 C 64.203125 136.644531 63.453125 135.316406 62.757812 133.960938 C 62.0625 132.605469 61.421875 131.222656 60.835938 129.816406 C 60.25 128.410156 59.71875 126.984375 59.246094 125.535156 C 58.769531 124.085938 58.355469 122.621094 57.996094 121.140625 C 57.640625 119.65625 57.339844 118.164062 57.101562 116.660156 C 56.859375 115.152344 56.679688 113.640625 56.558594 112.121094 C 56.441406 110.601562 56.378906 109.078125 56.378906 107.554688 Z M 56.378906 107.554688"/><g clip-path="url(#a)"><path fill="#26477A" d="M 104.929688 26.242188 C 104.929688 26.503906 104.878906 26.753906 104.78125 26.996094 C 104.679688 27.234375 104.539062 27.449219 104.355469 27.632812 C 104.167969 27.816406 103.957031 27.960938 103.714844 28.058594 C 103.476562 28.160156 103.222656 28.210938 102.964844 28.210938 C 102.703125 28.210938 102.453125 28.160156 102.210938 28.058594 C 101.96875 27.960938 101.757812 27.816406 101.574219 27.632812 C 101.386719 27.449219 101.246094 27.234375 101.148438 26.996094 C 101.046875 26.753906 100.996094 26.503906 100.996094 26.242188 C 100.996094 25.980469 101.046875 25.730469 101.148438 25.488281 C 101.246094 25.246094 101.386719 25.035156 101.574219 24.851562 C 101.757812 24.664062 101.96875 24.523438 102.210938 24.421875 C 102.453125 24.324219 102.703125 24.273438 102.964844 24.273438 C 103.222656 24.273438 103.476562 24.324219 103.714844 24.421875 C 103.957031 24.523438 104.167969 24.664062 104.355469 24.851562 C 104.539062 25.035156 104.679688 25.246094 104.78125 25.488281 C 104.878906 25.730469 104.929688 25.980469 104.929688 26.242188 Z M 104.929688 26.242188"/></g><path fill="#26477A" d="M 39.488281 140.320312 C 39.488281 140.773438 39.402344 141.214844 39.226562 141.632812 C 39.054688 142.054688 38.804688 142.425781 38.484375 142.75 C 38.160156 143.070312 37.789062 143.320312 37.371094 143.492188 C 36.949219 143.667969 36.511719 143.753906 36.054688 143.753906 C 35.601562 143.753906 35.164062 143.667969 34.742188 143.492188 C 34.324219 143.320312 33.953125 143.070312 33.628906 142.75 C 33.308594 142.425781 33.058594 142.054688 32.886719 141.632812 C 32.710938 141.214844 32.625 140.773438 32.625 140.320312 C 32.625 139.863281 32.710938 139.425781 32.886719 139.003906 C 33.058594 138.585938 33.308594 138.214844 33.628906 137.890625 C 33.953125 137.570312 34.324219 137.320312 34.742188 137.148438 C 35.164062 136.972656 35.601562 136.886719 36.054688 136.886719 C 36.511719 136.886719 36.949219 136.972656 37.371094 137.148438 C 37.789062 137.320312 38.160156 137.570312 38.484375 137.890625 C 38.804688 138.214844 39.054688 138.585938 39.226562 139.003906 C 39.402344 139.425781 39.488281 139.863281 39.488281 140.320312 Z M 39.488281 140.320312"/><path fill="#26477A" d="M 41.070312 94.085938 C 41.070312 94.542969 40.984375 94.980469 40.808594 95.402344 C 40.632812 95.820312 40.386719 96.191406 40.066406 96.515625 C 39.742188 96.835938 39.371094 97.085938 38.949219 97.261719 C 38.53125 97.433594 38.09375 97.519531 37.636719 97.519531 C 37.183594 97.519531 36.746094 97.433594 36.324219 97.261719 C 35.902344 97.085938 35.53125 96.835938 35.210938 96.515625 C 34.890625 96.191406 34.640625 95.820312 34.464844 95.402344 C 34.292969 94.980469 34.207031 94.542969 34.207031 94.085938 C 34.207031 93.632812 34.292969 93.191406 34.464844 92.773438 C 34.640625 92.351562 34.890625 91.980469 35.210938 91.65625 C 35.53125 91.335938 35.902344 91.085938 36.324219 90.914062 C 36.746094 90.738281 37.183594 90.652344 37.636719 90.652344 C 38.09375 90.652344 38.53125 90.738281 38.949219 90.914062 C 39.371094 91.085938 39.742188 91.335938 40.066406 91.65625 C 40.386719 91.980469 40.632812 92.351562 40.808594 92.773438 C 40.984375 93.191406 41.070312 93.632812 41.070312 94.085938 Z M 41.070312 94.085938"/><g clip-path="url(#b)"><path fill="#26477A" d="M 207.085938 120.097656 C 207.085938 120.554688 206.996094 120.992188 206.824219 121.410156 C 206.648438 121.832031 206.402344 122.203125 206.078125 122.527344 C 205.757812 122.847656 205.386719 123.097656 204.964844 123.269531 C 204.542969 123.445312 204.105469 123.53125 203.652344 123.53125 C 203.195312 123.53125 202.757812 123.445312 202.339844 123.269531 C 201.917969 123.097656 201.546875 122.847656 201.226562 122.527344 C 200.902344 122.203125 200.65625 121.832031 200.480469 121.410156 C 200.308594 120.992188 200.21875 120.554688 200.21875 120.097656 C 200.21875 119.640625 200.308594 119.203125 200.480469 118.785156 C 200.65625 118.363281 200.902344 117.992188 201.226562 117.667969 C 201.546875 117.347656 201.917969 117.097656 202.339844 116.925781 C 202.757812 116.75 203.195312 116.664062 203.652344 116.664062 C 204.105469 116.664062 204.542969 116.75 204.964844 116.925781 C 205.386719 117.097656 205.757812 117.347656 206.078125 117.667969 C 206.402344 117.992188 206.648438 118.363281 206.824219 118.785156 C 206.996094 119.203125 207.085938 119.640625 207.085938 120.097656 Z M 207.085938 120.097656"/></g><path fill="#26477A" d="M 69.414062 44.960938 C 69.414062 45.21875 69.363281 45.472656 69.265625 45.710938 C 69.164062 45.953125 69.023438 46.167969 68.835938 46.351562 C 68.652344 46.535156 68.441406 46.675781 68.199219 46.777344 C 67.957031 46.878906 67.707031 46.925781 67.445312 46.925781 C 67.1875 46.925781 66.933594 46.878906 66.695312 46.777344 C 66.453125 46.675781 66.242188 46.535156 66.054688 46.351562 C 65.871094 46.167969 65.730469 45.953125 65.628906 45.710938 C 65.53125 45.472656 65.480469 45.21875 65.480469 44.960938 C 65.480469 44.699219 65.53125 44.445312 65.628906 44.207031 C 65.730469 43.964844 65.871094 43.75 66.054688 43.566406 C 66.242188 43.382812 66.453125 43.242188 66.695312 43.140625 C 66.933594 43.039062 67.1875 42.992188 67.445312 42.992188 C 67.707031 42.992188 67.957031 43.039062 68.199219 43.140625 C 68.441406 43.242188 68.652344 43.382812 68.835938 43.566406 C 69.023438 43.75 69.164062 43.964844 69.265625 44.207031 C 69.363281 44.445312 69.414062 44.699219 69.414062 44.960938 Z M 69.414062 44.960938"/><path fill="#26477A" d="M 133.042969 176.671875 C 133.042969 176.933594 132.992188 177.1875 132.894531 177.425781 C 132.792969 177.667969 132.652344 177.878906 132.46875 178.066406 C 132.28125 178.25 132.070312 178.390625 131.828125 178.492188 C 131.585938 178.59375 131.335938 178.640625 131.074219 178.640625 C 130.816406 178.640625 130.5625 178.59375 130.324219 178.492188 C 130.082031 178.390625 129.871094 178.25 129.683594 178.066406 C 129.5 177.878906 129.359375 177.667969 129.257812 177.425781 C 129.160156 177.1875 129.109375 176.933594 129.109375 176.671875 C 129.109375 176.414062 129.160156 176.160156 129.257812 175.921875 C 129.359375 175.679688 129.5 175.464844 129.683594 175.28125 C 129.871094 175.097656 130.082031 174.953125 130.324219 174.855469 C 130.5625 174.753906 130.816406 174.707031 131.074219 174.707031 C 131.335938 174.707031 131.585938 174.753906 131.828125 174.855469 C 132.070312 174.953125 132.28125 175.097656 132.46875 175.28125 C 132.652344 175.464844 132.792969 175.679688 132.894531 175.921875 C 132.992188 176.160156 133.042969 176.414062 133.042969 176.671875 Z M 133.042969 176.671875"/><path fill="#FFD76B" d="M 33.859375 72.746094 L 31.042969 66.144531 L 23.984375 64.71875 L 29.421875 60.011719 L 28.574219 52.871094 L 34.746094 56.574219 L 41.261719 53.566406 L 39.644531 60.589844 L 44.5 65.875 L 37.367188 66.492188 Z M 33.859375 72.746094"/><path fill="#FFD76B" d="M 192.042969 168.300781 L 189.230469 161.699219 L 182.210938 160.273438 L 187.609375 155.5625 L 186.800781 148.425781 L 192.96875 152.128906 L 199.488281 149.15625 L 197.867188 156.144531 L 202.726562 161.429688 L 195.59375 162.046875 Z M 192.042969 168.300781"/><path fill="#26477A" d="M 44.617188 179.800781 L 42.382812 174.472656 L 36.671875 173.316406 L 41.070312 169.496094 L 40.375 163.746094 L 45.351562 166.71875 L 50.632812 164.324219 L 49.320312 169.957031 L 53.253906 174.242188 L 47.472656 174.742188 Z M 44.617188 179.800781"/><path fill="#26477A" d="M 170.023438 50.746094 L 167.75 45.421875 L 162.082031 44.265625 L 166.4375 40.445312 L 165.78125 34.695312 L 170.757812 37.664062 L 176.039062 35.273438 L 174.730469 40.90625 L 178.664062 45.191406 L 172.878906 45.691406 Z M 170.023438 50.746094"/><path fill="#26477A" d="M 190.65625 97.058594 C 190.65625 97.320312 190.605469 97.570312 190.507812 97.8125 C 190.40625 98.050781 190.265625 98.265625 190.082031 98.449219 C 189.894531 98.632812 189.683594 98.777344 189.441406 98.875 C 189.199219 98.976562 188.949219 99.027344 188.691406 99.027344 C 188.429688 99.027344 188.179688 98.976562 187.9375 98.875 C 187.695312 98.777344 187.484375 98.632812 187.296875 98.449219 C 187.113281 98.265625 186.972656 98.050781 186.871094 97.8125 C 186.773438 97.570312 186.722656 97.320312 186.722656 97.058594 C 186.722656 96.796875 186.773438 96.546875 186.871094 96.304688 C 186.972656 96.0625 187.113281 95.851562 187.296875 95.667969 C 187.484375 95.480469 187.695312 95.339844 187.9375 95.238281 C 188.179688 95.140625 188.429688 95.089844 188.691406 95.089844 C 188.949219 95.089844 189.199219 95.140625 189.441406 95.238281 C 189.683594 95.339844 189.894531 95.480469 190.082031 95.667969 C 190.265625 95.851562 190.40625 96.0625 190.507812 96.304688 C 190.605469 96.546875 190.65625 96.796875 190.65625 97.058594 Z M 190.65625 97.058594"/><path fill="#FFD76B" d="M 141.71875 38.628906 C 141.71875 38.957031 141.65625 39.273438 141.53125 39.574219 C 141.40625 39.878906 141.226562 40.144531 140.996094 40.375 C 140.765625 40.609375 140.5 40.785156 140.195312 40.910156 C 139.894531 41.039062 139.578125 41.101562 139.25 41.101562 C 138.925781 41.101562 138.609375 41.039062 138.308594 40.910156 C 138.003906 40.785156 137.738281 40.609375 137.507812 40.375 C 137.273438 40.144531 137.097656 39.878906 136.972656 39.574219 C 136.847656 39.273438 136.785156 38.957031 136.785156 38.628906 C 136.785156 38.300781 136.847656 37.988281 136.972656 37.683594 C 137.097656 37.382812 137.273438 37.113281 137.507812 36.882812 C 137.738281 36.652344 138.003906 36.472656 138.308594 36.347656 C 138.609375 36.222656 138.925781 36.160156 139.25 36.160156 C 139.578125 36.160156 139.894531 36.222656 140.195312 36.347656 C 140.5 36.472656 140.765625 36.652344 140.996094 36.882812 C 141.226562 37.113281 141.40625 37.382812 141.53125 37.683594 C 141.65625 37.988281 141.71875 38.300781 141.71875 38.628906 Z M 141.71875 38.628906"/><path fill="#FFD76B" d="M 177.96875 130.324219 C 177.96875 130.652344 177.90625 130.96875 177.78125 131.269531 C 177.65625 131.574219 177.476562 131.839844 177.246094 132.070312 C 177.015625 132.300781 176.746094 132.480469 176.445312 132.605469 C 176.144531 132.730469 175.828125 132.792969 175.5 132.792969 C 175.171875 132.792969 174.859375 132.730469 174.554688 132.605469 C 174.253906 132.480469 173.988281 132.300781 173.753906 132.070312 C 173.523438 131.839844 173.347656 131.574219 173.21875 131.269531 C 173.09375 130.96875 173.03125 130.652344 173.03125 130.324219 C 173.03125 129.996094 173.09375 129.683594 173.21875 129.378906 C 173.347656 129.078125 173.523438 128.808594 173.753906 128.578125 C 173.988281 128.347656 174.253906 128.167969 174.554688 128.042969 C 174.859375 127.917969 175.171875 127.855469 175.5 127.855469 C 175.828125 127.855469 176.144531 127.917969 176.445312 128.042969 C 176.746094 128.167969 177.015625 128.347656 177.246094 128.578125 C 177.476562 128.808594 177.65625 129.078125 177.78125 129.378906 C 177.90625 129.683594 177.96875 129.996094 177.96875 130.324219 Z M 177.96875 130.324219"/><path fill="#FFD76B" d="M 157.222656 184.390625 C 157.222656 184.71875 157.160156 185.035156 157.035156 185.335938 C 156.910156 185.640625 156.730469 185.90625 156.5 186.136719 C 156.269531 186.371094 156 186.546875 155.699219 186.675781 C 155.394531 186.800781 155.082031 186.863281 154.753906 186.863281 C 154.425781 186.863281 154.113281 186.800781 153.808594 186.675781 C 153.507812 186.546875 153.238281 186.371094 153.007812 186.136719 C 152.777344 185.90625 152.597656 185.640625 152.472656 185.335938 C 152.347656 185.035156 152.285156 184.71875 152.285156 184.390625 C 152.285156 184.0625 152.347656 183.75 152.472656 183.445312 C 152.597656 183.144531 152.777344 182.878906 153.007812 182.644531 C 153.238281 182.414062 153.507812 182.234375 153.808594 182.109375 C 154.113281 181.984375 154.425781 181.921875 154.753906 181.921875 C 155.082031 181.921875 155.394531 181.984375 155.699219 182.109375 C 156 182.234375 156.269531 182.414062 156.5 182.644531 C 156.730469 182.878906 156.910156 183.144531 157.035156 183.445312 C 157.160156 183.75 157.222656 184.0625 157.222656 184.390625 Z M 157.222656 184.390625"/><path fill="#FFD76B" d="M 192.3125 67.074219 C 192.3125 67.398438 192.25 67.714844 192.125 68.015625 C 192 68.320312 191.824219 68.585938 191.589844 68.820312 C 191.359375 69.050781 191.09375 69.230469 190.789062 69.355469 C 190.488281 69.480469 190.171875 69.542969 189.847656 69.542969 C 189.519531 69.542969 189.203125 69.480469 188.902344 69.355469 C 188.597656 69.230469 188.332031 69.050781 188.101562 68.820312 C 187.871094 68.585938 187.691406 68.320312 187.566406 68.015625 C 187.441406 67.714844 187.378906 67.398438 187.378906 67.074219 C 187.378906 66.746094 187.441406 66.429688 187.566406 66.128906 C 187.691406 65.824219 187.871094 65.558594 188.101562 65.324219 C 188.332031 65.09375 188.597656 64.914062 188.902344 64.789062 C 189.203125 64.664062 189.519531 64.601562 189.847656 64.601562 C 190.171875 64.601562 190.488281 64.664062 190.789062 64.789062 C 191.09375 64.914062 191.359375 65.09375 191.589844 65.324219 C 191.824219 65.558594 192 65.824219 192.125 66.128906 C 192.25 66.429688 192.3125 66.746094 192.3125 67.074219 Z M 192.3125 67.074219"/><g clip-path="url(#c)"><path fill="#FFD76B" d="M 114.457031 191.878906 C 114.457031 192.207031 114.394531 192.519531 114.265625 192.824219 C 114.140625 193.125 113.964844 193.394531 113.734375 193.625 C 113.5 193.855469 113.234375 194.035156 112.933594 194.160156 C 112.628906 194.285156 112.316406 194.347656 111.988281 194.347656 C 111.660156 194.347656 111.34375 194.285156 111.042969 194.160156 C 110.742188 194.035156 110.472656 193.855469 110.242188 193.625 C 110.011719 193.394531 109.832031 193.125 109.707031 192.824219 C 109.582031 192.519531 109.519531 192.207031 109.519531 191.878906 C 109.519531 191.550781 109.582031 191.234375 109.707031 190.933594 C 109.832031 190.632812 110.011719 190.363281 110.242188 190.132812 C 110.472656 189.902344 110.742188 189.722656 111.042969 189.597656 C 111.34375 189.472656 111.660156 189.410156 111.988281 189.410156 C 112.316406 189.410156 112.628906 189.472656 112.933594 189.597656 C 113.234375 189.722656 113.5 189.902344 113.734375 190.132812 C 113.964844 190.363281 114.140625 190.632812 114.265625 190.933594 C 114.394531 191.234375 114.457031 191.550781 114.457031 191.878906 Z M 114.457031 191.878906"/></g><path fill="#FFD76B" d="M 79.554688 182.039062 C 79.554688 182.367188 79.492188 182.679688 79.367188 182.984375 C 79.242188 183.285156 79.0625 183.550781 78.832031 183.785156 C 78.601562 184.015625 78.335938 184.195312 78.03125 184.320312 C 77.730469 184.445312 77.414062 184.507812 77.085938 184.507812 C 76.761719 184.507812 76.445312 184.445312 76.144531 184.320312 C 75.839844 184.195312 75.574219 184.015625 75.34375 183.785156 C 75.109375 183.550781 74.933594 183.285156 74.808594 182.984375 C 74.683594 182.679688 74.621094 182.367188 74.621094 182.039062 C 74.621094 181.710938 74.683594 181.394531 74.808594 181.09375 C 74.933594 180.789062 75.109375 180.523438 75.34375 180.292969 C 75.574219 180.058594 75.839844 179.882812 76.144531 179.757812 C 76.445312 179.628906 76.761719 179.566406 77.085938 179.566406 C 77.414062 179.566406 77.730469 179.628906 78.03125 179.757812 C 78.335938 179.882812 78.601562 180.058594 78.832031 180.292969 C 79.0625 180.523438 79.242188 180.789062 79.367188 181.09375 C 79.492188 181.394531 79.554688 181.710938 79.554688 182.039062 Z M 79.554688 182.039062"/><g clip-path="url(#d)"><path fill="#FFD76B" d="M 23.910156 119.789062 C 23.910156 120.117188 23.847656 120.429688 23.722656 120.734375 C 23.597656 121.035156 23.417969 121.304688 23.1875 121.535156 C 22.953125 121.765625 22.6875 121.945312 22.386719 122.070312 C 22.082031 122.195312 21.769531 122.257812 21.441406 122.257812 C 21.113281 122.257812 20.800781 122.195312 20.496094 122.070312 C 20.195312 121.945312 19.925781 121.765625 19.695312 121.535156 C 19.464844 121.304688 19.285156 121.035156 19.160156 120.734375 C 19.035156 120.429688 18.972656 120.117188 18.972656 119.789062 C 18.972656 119.460938 19.035156 119.144531 19.160156 118.84375 C 19.285156 118.542969 19.464844 118.273438 19.695312 118.042969 C 19.925781 117.8125 20.195312 117.632812 20.496094 117.507812 C 20.800781 117.382812 21.113281 117.320312 21.441406 117.320312 C 21.769531 117.320312 22.082031 117.382812 22.386719 117.507812 C 22.6875 117.632812 22.953125 117.8125 23.1875 118.042969 C 23.417969 118.273438 23.597656 118.542969 23.722656 118.84375 C 23.847656 119.144531 23.910156 119.460938 23.910156 119.789062 Z M 23.910156 119.789062"/></g></svg>