<svg xmlns="http://www.w3.org/2000/svg" width="224.88" viewBox="0 0 224.88 225" height="225" version="1.0"><defs><clipPath id="a"><path d="M 18.171875 25.179688 L 153 25.179688 L 153 106 L 18.171875 106 Z M 18.171875 25.179688"/></clipPath><clipPath id="b"><path d="M 92 58 L 207.070312 58 L 207.070312 126 L 92 126 Z M 92 58"/></clipPath><clipPath id="c"><path d="M 51 136 L 148 136 L 148 193.089844 L 51 193.089844 Z M 51 136"/></clipPath></defs><path fill="#FAF4DA" d="M 206.082031 215.359375 L 19.011719 215.359375 C 13.132812 215.359375 8.28125 210.507812 8.28125 204.625 L 8.28125 20.554688 C 8.28125 14.671875 13.132812 9.820312 19.011719 9.820312 L 205.933594 9.820312 C 211.816406 9.820312 216.667969 14.671875 216.667969 20.554688 L 216.667969 204.480469 C 216.8125 210.507812 211.960938 215.359375 206.082031 215.359375"/><path fill="#FAF4DA" d="M 206.082031 13.054688 C 210.199219 13.054688 213.578125 16.4375 213.578125 20.554688 L 213.578125 204.625 C 213.578125 208.742188 210.199219 212.125 206.082031 212.125 L 19.011719 212.125 C 14.894531 212.125 11.515625 208.742188 11.515625 204.625 L 11.515625 20.554688 C 11.515625 16.4375 14.894531 13.054688 19.011719 13.054688 L 206.082031 13.054688 M 206.082031 6.148438 L 19.011719 6.148438 C 11.074219 6.148438 4.605469 12.613281 4.605469 20.554688 L 4.605469 204.625 C 4.605469 212.566406 11.074219 219.03125 19.011719 219.03125 L 206.082031 219.03125 C 214.019531 219.03125 220.488281 212.566406 220.488281 204.625 L 220.488281 20.554688 C 220.488281 12.613281 214.019531 6.148438 206.082031 6.148438"/><g clip-path="url(#a)"><path fill="#26477A" d="M 135.453125 70.324219 L 134.933594 70.324219 C 135.582031 68.242188 135.898438 66.109375 135.890625 63.929688 C 135.890625 62.90625 135.816406 61.886719 135.671875 60.871094 C 135.527344 59.855469 135.308594 58.855469 135.023438 57.871094 C 134.738281 56.886719 134.382812 55.925781 133.957031 54.992188 C 133.535156 54.058594 133.046875 53.15625 132.496094 52.292969 C 131.945312 51.425781 131.335938 50.605469 130.671875 49.824219 C 130.003906 49.046875 129.285156 48.316406 128.511719 47.640625 C 127.742188 46.960938 126.925781 46.34375 126.066406 45.78125 C 125.210938 45.21875 124.316406 44.71875 123.386719 44.28125 C 122.457031 43.847656 121.5 43.476562 120.519531 43.175781 C 119.535156 42.875 118.539062 42.644531 117.523438 42.484375 C 116.507812 42.324219 115.488281 42.238281 114.460938 42.222656 C 113.433594 42.207031 112.410156 42.265625 111.390625 42.394531 C 110.371094 42.523438 109.367188 42.722656 108.375 42.992188 C 107.386719 43.265625 106.417969 43.605469 105.476562 44.011719 C 104.535156 44.421875 103.625 44.894531 102.75 45.429688 C 101.875 45.964844 101.042969 46.5625 100.25 47.214844 C 100.0625 46.378906 99.839844 45.554688 99.578125 44.738281 C 99.316406 43.925781 99.015625 43.125 98.679688 42.335938 C 98.34375 41.550781 97.976562 40.777344 97.570312 40.023438 C 97.164062 39.269531 96.722656 38.539062 96.25 37.824219 C 95.777344 37.109375 95.273438 36.421875 94.734375 35.753906 C 94.199219 35.085938 93.632812 34.441406 93.039062 33.828125 C 92.445312 33.210938 91.824219 32.625 91.171875 32.0625 C 90.523438 31.503906 89.851562 30.976562 89.15625 30.476562 C 88.457031 29.980469 87.738281 29.515625 87 29.082031 C 86.261719 28.648438 85.503906 28.25 84.726562 27.886719 C 83.949219 27.523438 83.160156 27.199219 82.351562 26.90625 C 81.546875 26.613281 80.730469 26.359375 79.898438 26.144531 C 79.070312 25.925781 78.234375 25.75 77.386719 25.609375 C 76.542969 25.46875 75.691406 25.367188 74.835938 25.304688 C 73.980469 25.242188 73.125 25.214844 72.269531 25.230469 C 71.410156 25.246094 70.558594 25.300781 69.703125 25.394531 C 68.851562 25.488281 68.007812 25.617188 67.167969 25.789062 C 66.324219 25.957031 65.496094 26.167969 64.675781 26.414062 C 63.851562 26.660156 63.046875 26.941406 62.25 27.261719 C 61.453125 27.582031 60.675781 27.933594 59.914062 28.324219 C 59.148438 28.714844 58.40625 29.140625 57.683594 29.597656 C 56.957031 30.058594 56.257812 30.546875 55.578125 31.070312 C 54.898438 31.59375 54.246094 32.144531 53.617188 32.726562 C 52.988281 33.308594 52.386719 33.917969 51.816406 34.554688 C 51.242188 35.191406 50.699219 35.851562 50.1875 36.539062 C 49.675781 37.222656 49.195312 37.933594 48.746094 38.664062 C 48.300781 39.390625 47.886719 40.140625 47.507812 40.910156 C 47.128906 41.675781 46.785156 42.457031 46.476562 43.257812 C 46.171875 44.054688 45.898438 44.867188 45.667969 45.691406 C 45.433594 46.515625 45.238281 47.347656 45.082031 48.1875 C 44.925781 49.03125 44.804688 49.875 44.726562 50.726562 C 44.648438 51.582031 44.605469 52.433594 44.605469 53.289062 C 44.617188 55.09375 44.789062 56.878906 45.121094 58.648438 C 43.960938 58.488281 42.792969 58.410156 41.621094 58.410156 C 40.332031 58.414062 39.054688 58.523438 37.785156 58.738281 C 36.515625 58.953125 35.269531 59.269531 34.054688 59.6875 C 32.835938 60.109375 31.660156 60.625 30.527344 61.234375 C 29.394531 61.847656 28.320312 62.546875 27.300781 63.335938 C 26.285156 64.125 25.339844 64.992188 24.464844 65.933594 C 23.589844 66.878906 22.796875 67.890625 22.089844 68.964844 C 21.382812 70.039062 20.769531 71.160156 20.246094 72.335938 C 19.722656 73.511719 19.300781 74.722656 18.976562 75.96875 C 18.65625 77.210938 18.4375 78.476562 18.320312 79.753906 C 18.207031 81.035156 18.199219 82.316406 18.296875 83.601562 C 18.394531 84.882812 18.59375 86.148438 18.898438 87.398438 C 19.207031 88.644531 19.609375 89.863281 20.117188 91.042969 C 20.625 92.226562 21.222656 93.359375 21.917969 94.441406 C 22.609375 95.527344 23.386719 96.546875 24.25 97.503906 C 25.109375 98.457031 26.042969 99.335938 27.050781 100.140625 C 28.054688 100.941406 29.121094 101.65625 30.246094 102.285156 C 31.675781 103.242188 33.210938 103.972656 34.859375 104.472656 C 36.507812 104.976562 38.191406 105.222656 39.910156 105.222656 L 135.453125 105.222656 C 136.023438 105.222656 136.597656 105.191406 137.167969 105.136719 C 137.738281 105.078125 138.300781 104.992188 138.863281 104.882812 C 139.425781 104.769531 139.980469 104.628906 140.527344 104.460938 C 141.074219 104.296875 141.613281 104.101562 142.144531 103.882812 C 142.671875 103.664062 143.191406 103.417969 143.695312 103.148438 C 144.199219 102.878906 144.691406 102.585938 145.167969 102.265625 C 145.640625 101.949219 146.101562 101.609375 146.542969 101.246094 C 146.988281 100.882812 147.410156 100.5 147.816406 100.09375 C 148.222656 99.691406 148.605469 99.265625 148.96875 98.824219 C 149.332031 98.382812 149.671875 97.925781 149.992188 97.449219 C 150.308594 96.972656 150.605469 96.484375 150.875 95.980469 C 151.144531 95.476562 151.390625 94.960938 151.609375 94.433594 C 151.832031 93.90625 152.023438 93.367188 152.191406 92.820312 C 152.359375 92.273438 152.496094 91.71875 152.609375 91.160156 C 152.722656 90.597656 152.808594 90.035156 152.867188 89.464844 C 152.921875 88.894531 152.953125 88.324219 152.953125 87.753906 C 152.949219 87.183594 152.921875 86.613281 152.863281 86.042969 C 152.804688 85.476562 152.71875 84.914062 152.605469 84.351562 C 152.492188 83.792969 152.347656 83.242188 152.183594 82.695312 C 152.015625 82.148438 151.820312 81.613281 151.597656 81.085938 C 151.378906 80.558594 151.132812 80.042969 150.863281 79.542969 C 150.589844 79.039062 150.296875 78.550781 149.976562 78.074219 C 149.660156 77.601562 149.316406 77.144531 148.953125 76.703125 C 148.589844 76.261719 148.207031 75.839844 147.800781 75.4375 C 147.398438 75.035156 146.972656 74.652344 146.53125 74.289062 C 146.089844 73.925781 145.628906 73.589844 145.152344 73.269531 C 144.679688 72.953125 144.1875 72.660156 143.683594 72.390625 C 143.179688 72.121094 142.664062 71.878906 142.132812 71.660156 C 141.605469 71.441406 141.066406 71.25 140.519531 71.082031 C 139.972656 70.914062 139.417969 70.777344 138.859375 70.664062 C 138.296875 70.550781 137.734375 70.46875 137.164062 70.410156 C 136.59375 70.351562 136.023438 70.324219 135.453125 70.324219 Z M 135.453125 70.324219"/></g><path fill="#6B99D2" d="M 135.214844 122.929688 L 134.816406 122.929688 C 135.3125 121.300781 135.566406 119.632812 135.570312 117.929688 C 135.570312 117.128906 135.515625 116.332031 135.398438 115.539062 C 135.285156 114.746094 135.117188 113.964844 134.890625 113.195312 C 134.667969 112.425781 134.390625 111.675781 134.058594 110.949219 C 133.726562 110.21875 133.347656 109.515625 132.917969 108.839844 C 132.484375 108.164062 132.007812 107.523438 131.488281 106.914062 C 130.964844 106.304688 130.402344 105.738281 129.800781 105.207031 C 129.199219 104.679688 128.5625 104.195312 127.890625 103.757812 C 127.21875 103.320312 126.519531 102.929688 125.792969 102.589844 C 125.066406 102.25 124.320312 101.964844 123.554688 101.730469 C 122.785156 101.496094 122.007812 101.316406 121.214844 101.191406 C 120.421875 101.066406 119.625 101 118.820312 100.988281 C 118.019531 100.976562 117.21875 101.023438 116.425781 101.125 C 115.628906 101.226562 114.84375 101.386719 114.070312 101.597656 C 113.296875 101.8125 112.542969 102.078125 111.808594 102.398438 C 111.070312 102.71875 110.363281 103.085938 109.679688 103.507812 C 108.996094 103.925781 108.347656 104.394531 107.730469 104.90625 C 107.589844 104.25 107.417969 103.597656 107.21875 102.957031 C 107.019531 102.316406 106.792969 101.683594 106.535156 101.0625 C 106.277344 100.441406 105.992188 99.835938 105.679688 99.238281 C 105.363281 98.644531 105.023438 98.066406 104.65625 97.503906 C 104.292969 96.9375 103.898438 96.394531 103.480469 95.867188 C 103.066406 95.339844 102.625 94.832031 102.160156 94.34375 C 101.695312 93.859375 101.210938 93.394531 100.703125 92.949219 C 100.199219 92.507812 99.671875 92.089844 99.128906 91.695312 C 98.582031 91.300781 98.019531 90.933594 97.441406 90.589844 C 96.863281 90.25 96.269531 89.933594 95.660156 89.644531 C 95.050781 89.355469 94.429688 89.097656 93.800781 88.867188 C 93.167969 88.636719 92.527344 88.433594 91.875 88.261719 C 91.222656 88.089844 90.566406 87.949219 89.902344 87.835938 C 89.238281 87.722656 88.570312 87.644531 87.902344 87.59375 C 87.230469 87.542969 86.558594 87.523438 85.882812 87.53125 C 85.210938 87.542969 84.539062 87.585938 83.871094 87.660156 C 83.203125 87.730469 82.535156 87.835938 81.878906 87.96875 C 81.21875 88.101562 80.566406 88.265625 79.921875 88.460938 C 79.277344 88.652344 78.640625 88.875 78.019531 89.128906 C 77.394531 89.378906 76.78125 89.660156 76.183594 89.96875 C 75.585938 90.277344 75.003906 90.613281 74.4375 90.972656 C 73.867188 91.335938 73.320312 91.722656 72.789062 92.132812 C 72.253906 92.546875 71.742188 92.980469 71.253906 93.441406 C 70.761719 93.898438 70.289062 94.378906 69.84375 94.882812 C 69.394531 95.382812 68.972656 95.90625 68.574219 96.445312 C 68.175781 96.988281 67.800781 97.546875 67.453125 98.121094 C 67.105469 98.695312 66.785156 99.285156 66.492188 99.890625 C 66.195312 100.496094 65.933594 101.113281 65.695312 101.742188 C 65.457031 102.371094 65.25 103.007812 65.074219 103.65625 C 64.894531 104.304688 64.746094 104.960938 64.628906 105.621094 C 64.511719 106.28125 64.425781 106.949219 64.371094 107.617188 C 64.3125 108.289062 64.289062 108.957031 64.292969 109.628906 C 64.304688 111.042969 64.4375 112.449219 64.691406 113.839844 C 63.785156 113.675781 62.871094 113.597656 61.949219 113.601562 C 60.9375 113.597656 59.9375 113.679688 58.941406 113.839844 C 57.945312 114.003906 56.96875 114.246094 56.011719 114.570312 C 55.058594 114.894531 54.136719 115.296875 53.246094 115.773438 C 52.359375 116.25 51.515625 116.792969 50.714844 117.410156 C 49.917969 118.027344 49.175781 118.703125 48.488281 119.441406 C 47.800781 120.179688 47.179688 120.96875 46.625 121.808594 C 46.070312 122.652344 45.585938 123.53125 45.175781 124.453125 C 44.769531 125.371094 44.4375 126.320312 44.183594 127.296875 C 43.933594 128.269531 43.761719 129.261719 43.671875 130.261719 C 43.585938 131.265625 43.578125 132.269531 43.65625 133.273438 C 43.734375 134.277344 43.894531 135.269531 44.136719 136.246094 C 44.378906 137.226562 44.699219 138.175781 45.101562 139.101562 C 45.5 140.027344 45.972656 140.914062 46.519531 141.757812 C 47.066406 142.605469 47.679688 143.402344 48.355469 144.148438 C 49.035156 144.890625 49.769531 145.578125 50.5625 146.203125 C 51.355469 146.824219 52.195312 147.378906 53.078125 147.867188 C 55.359375 149.410156 57.878906 150.179688 60.632812 150.167969 L 135.214844 150.167969 C 136.109375 150.167969 137 150.082031 137.878906 149.90625 C 138.757812 149.734375 139.613281 149.476562 140.441406 149.132812 C 141.269531 148.789062 142.058594 148.371094 142.804688 147.875 C 143.550781 147.378906 144.238281 146.8125 144.875 146.183594 C 145.511719 145.550781 146.078125 144.863281 146.578125 144.121094 C 147.078125 143.375 147.5 142.589844 147.84375 141.765625 C 148.1875 140.9375 148.449219 140.085938 148.625 139.210938 C 148.804688 138.332031 148.894531 137.445312 148.894531 136.550781 C 148.894531 135.65625 148.804688 134.769531 148.625 133.890625 C 148.449219 133.011719 148.1875 132.160156 147.84375 131.335938 C 147.5 130.507812 147.078125 129.722656 146.578125 128.980469 C 146.078125 128.238281 145.511719 127.550781 144.875 126.917969 C 144.238281 126.285156 143.550781 125.722656 142.804688 125.226562 C 142.058594 124.730469 141.269531 124.308594 140.441406 123.96875 C 139.613281 123.625 138.757812 123.367188 137.878906 123.191406 C 137 123.019531 136.109375 122.929688 135.214844 122.929688 Z M 135.214844 122.929688"/><path fill="#26477A" d="M 136.289062 125.035156 L 135.890625 125.035156 C 136.371094 123.417969 136.609375 121.761719 136.605469 120.074219 C 136.605469 119.273438 136.546875 118.476562 136.4375 117.683594 C 136.324219 116.894531 136.152344 116.113281 135.929688 115.34375 C 135.707031 114.578125 135.429688 113.828125 135.101562 113.097656 C 134.769531 112.371094 134.390625 111.667969 133.960938 110.992188 C 133.53125 110.316406 133.054688 109.675781 132.535156 109.066406 C 132.015625 108.460938 131.453125 107.890625 130.851562 107.363281 C 130.253906 106.832031 129.617188 106.347656 128.945312 105.910156 C 128.277344 105.46875 127.578125 105.078125 126.855469 104.738281 C 126.128906 104.398438 125.382812 104.109375 124.617188 103.875 C 123.851562 103.640625 123.074219 103.460938 122.28125 103.335938 C 121.492188 103.210938 120.695312 103.140625 119.894531 103.128906 C 119.089844 103.113281 118.292969 103.15625 117.5 103.257812 C 116.703125 103.359375 115.917969 103.511719 115.144531 103.722656 C 114.375 103.933594 113.617188 104.199219 112.882812 104.515625 C 112.148438 104.835938 111.4375 105.203125 110.753906 105.621094 C 110.070312 106.035156 109.421875 106.5 108.804688 107.011719 C 108.503906 105.710938 108.089844 104.449219 107.5625 103.222656 C 107.03125 101.996094 106.398438 100.832031 105.65625 99.722656 C 104.914062 98.613281 104.074219 97.578125 103.144531 96.621094 C 102.214844 95.664062 101.203125 94.800781 100.117188 94.027344 C 99.027344 93.253906 97.878906 92.585938 96.667969 92.019531 C 95.457031 91.457031 94.203125 91.003906 92.910156 90.667969 C 91.617188 90.332031 90.304688 90.117188 88.972656 90.019531 C 87.640625 89.921875 86.308594 89.945312 84.980469 90.089844 C 83.652344 90.234375 82.347656 90.496094 81.066406 90.878906 C 79.785156 91.261719 78.550781 91.753906 77.363281 92.359375 C 76.171875 92.96875 75.046875 93.675781 73.984375 94.488281 C 72.925781 95.296875 71.945312 96.199219 71.050781 97.1875 C 70.152344 98.175781 69.355469 99.238281 68.652344 100.375 C 67.949219 101.507812 67.355469 102.699219 66.871094 103.941406 C 66.382812 105.183594 66.015625 106.460938 65.761719 107.769531 C 65.511719 109.078125 65.378906 110.402344 65.367188 111.734375 C 65.359375 113.152344 65.492188 114.554688 65.765625 115.945312 C 64.855469 115.816406 63.941406 115.75 63.019531 115.746094 C 62.015625 115.75 61.015625 115.835938 60.027344 116 C 59.035156 116.167969 58.0625 116.417969 57.113281 116.742188 C 56.160156 117.070312 55.242188 117.472656 54.359375 117.949219 C 53.476562 118.429688 52.636719 118.976562 51.839844 119.589844 C 51.046875 120.207031 50.308594 120.882812 49.625 121.621094 C 48.941406 122.355469 48.324219 123.144531 47.773438 123.984375 C 47.21875 124.820312 46.738281 125.699219 46.328125 126.617188 C 45.921875 127.535156 45.589844 128.476562 45.339844 129.449219 C 45.085938 130.421875 44.914062 131.40625 44.824219 132.40625 C 44.734375 133.40625 44.726562 134.40625 44.800781 135.410156 C 44.875 136.410156 45.03125 137.398438 45.269531 138.375 C 45.507812 139.347656 45.824219 140.296875 46.214844 141.222656 C 46.609375 142.144531 47.078125 143.03125 47.617188 143.878906 C 48.15625 144.722656 48.761719 145.519531 49.433594 146.269531 C 50.105469 147.015625 50.835938 147.703125 51.617188 148.332031 C 52.402344 148.960938 53.234375 149.519531 54.113281 150.011719 C 56.414062 151.535156 58.945312 152.304688 61.707031 152.3125 L 136.289062 152.3125 C 137.183594 152.308594 138.070312 152.21875 138.953125 152.042969 C 139.832031 151.867188 140.683594 151.605469 141.511719 151.261719 C 142.339844 150.917969 143.125 150.496094 143.871094 149.996094 C 144.613281 149.5 145.304688 148.933594 145.9375 148.296875 C 146.570312 147.664062 147.136719 146.976562 147.632812 146.230469 C 148.128906 145.484375 148.550781 144.699219 148.894531 143.871094 C 149.234375 143.042969 149.492188 142.191406 149.667969 141.3125 C 149.84375 140.4375 149.929688 139.550781 149.929688 138.65625 C 149.929688 137.761719 149.839844 136.875 149.660156 136 C 149.484375 135.125 149.226562 134.273438 148.882812 133.449219 C 148.539062 132.625 148.117188 131.839844 147.617188 131.097656 C 147.121094 130.355469 146.554688 129.667969 145.921875 129.035156 C 145.289062 128.40625 144.601562 127.839844 143.859375 127.34375 C 143.113281 126.847656 142.328125 126.425781 141.503906 126.082031 C 140.675781 125.738281 139.824219 125.480469 138.945312 125.304688 C 138.070312 125.128906 137.183594 125.039062 136.289062 125.035156 Z M 136.289062 125.035156"/><path fill="#6B99D2" d="M 193.285156 145.761719 L 192.96875 145.761719 C 193.335938 144.503906 193.523438 143.21875 193.523438 141.910156 C 193.523438 140.660156 193.347656 139.4375 192.996094 138.238281 C 192.648438 137.039062 192.136719 135.914062 191.46875 134.859375 C 190.796875 133.804688 189.992188 132.863281 189.054688 132.039062 C 188.117188 131.210938 187.082031 130.53125 185.949219 130 C 184.820312 129.46875 183.636719 129.101562 182.398438 128.90625 C 181.164062 128.710938 179.925781 128.6875 178.683594 128.84375 C 177.441406 128.996094 176.246094 129.320312 175.097656 129.816406 C 173.949219 130.308594 172.890625 130.953125 171.925781 131.746094 C 171.703125 130.726562 171.386719 129.738281 170.980469 128.78125 C 170.574219 127.820312 170.085938 126.90625 169.511719 126.035156 C 168.9375 125.164062 168.289062 124.355469 167.566406 123.601562 C 166.84375 122.851562 166.058594 122.171875 165.210938 121.566406 C 164.363281 120.957031 163.46875 120.433594 162.523438 119.988281 C 161.578125 119.546875 160.601562 119.191406 159.59375 118.925781 C 158.582031 118.664062 157.558594 118.492188 156.515625 118.414062 C 155.476562 118.339844 154.4375 118.355469 153.398438 118.46875 C 152.363281 118.582031 151.34375 118.789062 150.34375 119.089844 C 149.347656 119.390625 148.382812 119.777344 147.453125 120.253906 C 146.527344 120.730469 145.648438 121.289062 144.824219 121.925781 C 144 122.5625 143.238281 123.269531 142.542969 124.046875 C 141.847656 124.824219 141.226562 125.65625 140.683594 126.546875 C 140.140625 127.4375 139.683594 128.367188 139.3125 129.339844 C 138.941406 130.316406 138.664062 131.3125 138.476562 132.339844 C 138.289062 133.363281 138.195312 134.398438 138.195312 135.4375 C 138.199219 136.535156 138.304688 137.617188 138.515625 138.695312 C 137.816406 138.582031 137.113281 138.527344 136.40625 138.535156 C 135.621094 138.53125 134.84375 138.589844 134.066406 138.714844 C 133.292969 138.835938 132.535156 139.023438 131.789062 139.273438 C 131.046875 139.523438 130.328125 139.832031 129.636719 140.199219 C 128.941406 140.570312 128.285156 140.992188 127.664062 141.46875 C 127.042969 141.945312 126.460938 142.472656 125.925781 143.042969 C 125.394531 143.617188 124.910156 144.230469 124.476562 144.882812 C 124.042969 145.535156 123.664062 146.222656 123.347656 146.9375 C 123.027344 147.652344 122.769531 148.386719 122.570312 149.148438 C 122.375 149.90625 122.242188 150.675781 122.171875 151.453125 C 122.101562 152.234375 122.097656 153.015625 122.15625 153.796875 C 122.21875 154.578125 122.339844 155.347656 122.527344 156.109375 C 122.71875 156.867188 122.964844 157.609375 123.277344 158.328125 C 123.589844 159.046875 123.957031 159.734375 124.382812 160.394531 C 124.808594 161.050781 125.285156 161.671875 125.8125 162.25 C 126.339844 162.828125 126.914062 163.359375 127.53125 163.84375 C 128.144531 164.328125 128.796875 164.761719 129.484375 165.136719 C 131.261719 166.347656 133.222656 166.941406 135.371094 166.925781 L 193.285156 166.925781 C 193.980469 166.921875 194.667969 166.851562 195.347656 166.714844 C 196.027344 166.578125 196.6875 166.375 197.328125 166.109375 C 197.96875 165.84375 198.578125 165.515625 199.15625 165.132812 C 199.730469 164.746094 200.265625 164.308594 200.753906 163.820312 C 201.246094 163.328125 201.683594 162.796875 202.070312 162.222656 C 202.457031 161.644531 202.785156 161.039062 203.050781 160.398438 C 203.316406 159.757812 203.519531 159.097656 203.65625 158.421875 C 203.792969 157.742188 203.863281 157.054688 203.867188 156.363281 C 203.867188 155.667969 203.796875 154.980469 203.664062 154.300781 C 203.527344 153.617188 203.328125 152.957031 203.0625 152.316406 C 202.796875 151.671875 202.46875 151.0625 202.085938 150.484375 C 201.699219 149.90625 201.261719 149.371094 200.769531 148.878906 C 200.277344 148.386719 199.746094 147.949219 199.167969 147.5625 C 198.589844 147.175781 197.980469 146.847656 197.335938 146.578125 C 196.695312 146.3125 196.035156 146.109375 195.351562 145.972656 C 194.671875 145.835938 193.980469 145.765625 193.285156 145.761719 Z M 193.285156 145.761719"/><path fill="#26477A" d="M 194.359375 146.832031 L 194 146.832031 C 194.40625 145.566406 194.605469 144.269531 194.597656 142.941406 C 194.597656 142.078125 194.515625 141.226562 194.34375 140.378906 C 194.175781 139.53125 193.925781 138.710938 193.597656 137.914062 C 193.265625 137.117188 192.859375 136.359375 192.378906 135.640625 C 191.898438 134.921875 191.351562 134.261719 190.742188 133.648438 C 190.132812 133.039062 189.464844 132.496094 188.746094 132.015625 C 188.027344 131.535156 187.269531 131.132812 186.472656 130.800781 C 185.671875 130.46875 184.847656 130.222656 184 130.054688 C 183.152344 129.882812 182.296875 129.800781 181.433594 129.800781 C 179.894531 129.789062 178.398438 130.042969 176.949219 130.5625 C 175.5 131.082031 174.183594 131.832031 173 132.816406 C 172.777344 131.800781 172.460938 130.8125 172.054688 129.851562 C 171.648438 128.890625 171.160156 127.976562 170.585938 127.105469 C 170.011719 126.238281 169.363281 125.425781 168.640625 124.675781 C 167.917969 123.925781 167.132812 123.246094 166.285156 122.636719 C 165.4375 122.03125 164.542969 121.503906 163.597656 121.0625 C 162.652344 120.617188 161.675781 120.261719 160.667969 120 C 159.65625 119.734375 158.632812 119.5625 157.589844 119.488281 C 156.550781 119.410156 155.511719 119.429688 154.472656 119.542969 C 153.4375 119.65625 152.417969 119.863281 151.417969 120.164062 C 150.417969 120.460938 149.457031 120.851562 148.527344 121.328125 C 147.601562 121.804688 146.722656 122.359375 145.898438 123 C 145.070312 123.636719 144.3125 124.34375 143.617188 125.117188 C 142.921875 125.894531 142.300781 126.726562 141.757812 127.617188 C 141.214844 128.507812 140.757812 129.441406 140.386719 130.414062 C 140.015625 131.386719 139.738281 132.386719 139.550781 133.410156 C 139.359375 134.433594 139.269531 135.46875 139.269531 136.511719 C 139.277344 137.605469 139.382812 138.691406 139.589844 139.765625 C 138.878906 139.652344 138.160156 139.597656 137.441406 139.605469 C 136.65625 139.605469 135.878906 139.667969 135.105469 139.792969 C 134.332031 139.917969 133.574219 140.105469 132.832031 140.355469 C 132.089844 140.609375 131.371094 140.917969 130.679688 141.289062 C 129.992188 141.65625 129.335938 142.082031 128.714844 142.558594 C 128.09375 143.039062 127.515625 143.5625 126.984375 144.136719 C 126.449219 144.710938 125.96875 145.324219 125.535156 145.976562 C 125.105469 146.628906 124.730469 147.3125 124.410156 148.027344 C 124.09375 148.742188 123.835938 149.480469 123.640625 150.238281 C 123.445312 150.996094 123.3125 151.765625 123.242188 152.542969 C 123.175781 153.324219 123.171875 154.101562 123.230469 154.882812 C 123.292969 155.664062 123.417969 156.433594 123.605469 157.191406 C 123.796875 157.953125 124.042969 158.691406 124.355469 159.410156 C 124.667969 160.125 125.035156 160.8125 125.460938 161.472656 C 125.886719 162.128906 126.363281 162.746094 126.890625 163.324219 C 127.417969 163.902344 127.988281 164.433594 128.605469 164.917969 C 129.222656 165.402344 129.871094 165.832031 130.558594 166.210938 C 132.328125 167.390625 134.277344 167.988281 136.40625 167.996094 L 194.359375 167.996094 C 195.054688 167.992188 195.742188 167.921875 196.425781 167.785156 C 197.109375 167.648438 197.769531 167.445312 198.410156 167.179688 C 199.054688 166.910156 199.664062 166.582031 200.242188 166.195312 C 200.816406 165.808594 201.351562 165.367188 201.84375 164.878906 C 202.335938 164.386719 202.773438 163.851562 203.160156 163.273438 C 203.542969 162.695312 203.871094 162.085938 204.136719 161.441406 C 204.402344 160.800781 204.601562 160.140625 204.738281 159.457031 C 204.871094 158.777344 204.941406 158.089844 204.941406 157.394531 C 204.9375 156.703125 204.867188 156.015625 204.730469 155.335938 C 204.59375 154.660156 204.390625 154 204.125 153.359375 C 203.855469 152.71875 203.53125 152.113281 203.144531 151.535156 C 202.757812 150.960938 202.320312 150.429688 201.828125 149.9375 C 201.339844 149.449219 200.804688 149.011719 200.226562 148.625 C 199.652344 148.238281 199.042969 147.914062 198.402344 147.648438 C 197.761719 147.382812 197.101562 147.179688 196.421875 147.042969 C 195.742188 146.90625 195.054688 146.835938 194.359375 146.832031 Z M 194.359375 146.832031"/><g clip-path="url(#b)"><path fill="#6B99D2" d="M 107.6875 96.25 L 108.125 96.25 C 107.59375 94.488281 107.332031 92.6875 107.332031 90.851562 C 107.332031 90.25 107.359375 89.648438 107.417969 89.046875 C 107.480469 88.449219 107.566406 87.855469 107.683594 87.265625 C 107.800781 86.671875 107.949219 86.089844 108.125 85.515625 C 108.300781 84.9375 108.503906 84.371094 108.734375 83.816406 C 108.964844 83.257812 109.222656 82.714844 109.503906 82.183594 C 109.789062 81.652344 110.101562 81.136719 110.433594 80.636719 C 110.769531 80.136719 111.128906 79.652344 111.511719 79.1875 C 111.894531 78.722656 112.296875 78.277344 112.726562 77.851562 C 113.152344 77.425781 113.597656 77.023438 114.0625 76.640625 C 114.53125 76.257812 115.015625 75.898438 115.515625 75.566406 C 116.015625 75.230469 116.535156 74.921875 117.066406 74.636719 C 117.597656 74.355469 118.140625 74.097656 118.699219 73.867188 C 119.257812 73.636719 119.824219 73.433594 120.402344 73.257812 C 120.976562 73.082031 121.5625 72.9375 122.152344 72.820312 C 122.746094 72.703125 123.339844 72.613281 123.941406 72.554688 C 124.542969 72.496094 125.144531 72.46875 125.746094 72.46875 C 127.894531 72.46875 129.976562 72.828125 132 73.550781 C 134.019531 74.273438 135.859375 75.316406 137.519531 76.675781 C 137.675781 75.96875 137.863281 75.265625 138.085938 74.574219 C 138.304688 73.882812 138.558594 73.203125 138.839844 72.535156 C 139.125 71.867188 139.4375 71.210938 139.777344 70.574219 C 140.121094 69.933594 140.492188 69.308594 140.894531 68.703125 C 141.292969 68.097656 141.71875 67.511719 142.171875 66.945312 C 142.628906 66.378906 143.105469 65.832031 143.609375 65.308594 C 144.113281 64.785156 144.640625 64.285156 145.1875 63.8125 C 145.738281 63.335938 146.308594 62.886719 146.898438 62.464844 C 147.488281 62.042969 148.097656 61.644531 148.726562 61.277344 C 149.351562 60.910156 149.996094 60.574219 150.652344 60.265625 C 151.308594 59.957031 151.980469 59.675781 152.664062 59.429688 C 153.347656 59.183594 154.042969 58.964844 154.746094 58.78125 C 155.449219 58.597656 156.15625 58.445312 156.875 58.328125 C 157.589844 58.207031 158.3125 58.121094 159.039062 58.070312 C 159.761719 58.015625 160.488281 57.996094 161.214844 58.007812 C 161.941406 58.019531 162.667969 58.066406 163.390625 58.144531 C 164.113281 58.226562 164.828125 58.335938 165.542969 58.480469 C 166.253906 58.628906 166.957031 58.804688 167.65625 59.011719 C 168.351562 59.222656 169.035156 59.460938 169.710938 59.734375 C 170.382812 60.007812 171.042969 60.308594 171.691406 60.640625 C 172.335938 60.972656 172.96875 61.332031 173.582031 61.722656 C 174.195312 62.113281 174.789062 62.527344 175.363281 62.972656 C 175.9375 63.417969 176.492188 63.886719 177.023438 64.378906 C 177.554688 64.875 178.0625 65.390625 178.546875 65.933594 C 179.035156 66.472656 179.492188 67.035156 179.925781 67.617188 C 180.359375 68.203125 180.765625 68.804688 181.140625 69.421875 C 181.519531 70.042969 181.867188 70.679688 182.1875 71.332031 C 182.507812 71.980469 182.796875 72.648438 183.054688 73.324219 C 183.3125 74.003906 183.542969 74.691406 183.738281 75.390625 C 183.933594 76.089844 184.09375 76.796875 184.226562 77.511719 C 184.355469 78.222656 184.453125 78.941406 184.519531 79.664062 C 184.585938 80.386719 184.617188 81.113281 184.613281 81.835938 C 184.609375 83.359375 184.464844 84.867188 184.175781 86.363281 C 185.167969 86.238281 186.160156 86.171875 187.160156 86.164062 C 188.253906 86.164062 189.339844 86.25 190.421875 86.425781 C 191.5 86.605469 192.558594 86.867188 193.59375 87.21875 C 194.628906 87.570312 195.628906 88.003906 196.59375 88.523438 C 197.558594 89.039062 198.472656 89.632812 199.339844 90.300781 C 200.203125 90.964844 201.007812 91.699219 201.753906 92.5 C 202.496094 93.300781 203.171875 94.160156 203.773438 95.070312 C 204.375 95.980469 204.898438 96.9375 205.34375 97.933594 C 205.789062 98.933594 206.144531 99.960938 206.421875 101.019531 C 206.695312 102.074219 206.878906 103.148438 206.976562 104.234375 C 207.070312 105.324219 207.078125 106.414062 206.992188 107.5 C 206.910156 108.589844 206.734375 109.664062 206.472656 110.726562 C 206.210938 111.785156 205.863281 112.816406 205.429688 113.820312 C 204.996094 114.824219 204.484375 115.785156 203.894531 116.703125 C 203.300781 117.621094 202.636719 118.484375 201.902344 119.292969 C 201.167969 120.101562 200.371094 120.84375 199.511719 121.523438 C 198.652344 122.199219 197.746094 122.800781 196.785156 123.328125 C 194.3125 125 191.582031 125.835938 188.59375 125.828125 L 107.6875 125.828125 C 106.714844 125.828125 105.75 125.730469 104.796875 125.539062 C 103.84375 125.347656 102.917969 125.066406 102.019531 124.691406 C 101.117188 124.320312 100.265625 123.863281 99.457031 123.320312 C 98.648438 122.78125 97.898438 122.167969 97.210938 121.480469 C 96.523438 120.792969 95.90625 120.046875 95.367188 119.238281 C 94.824219 118.429688 94.367188 117.578125 93.992188 116.679688 C 93.617188 115.785156 93.335938 114.859375 93.144531 113.90625 C 92.953125 112.953125 92.855469 111.992188 92.851562 111.019531 C 92.859375 110.050781 92.957031 109.089844 93.152344 108.140625 C 93.34375 107.1875 93.628906 106.265625 94.003906 105.371094 C 94.378906 104.476562 94.835938 103.625 95.378906 102.820312 C 95.921875 102.015625 96.535156 101.269531 97.222656 100.585938 C 97.910156 99.898438 98.660156 99.289062 99.46875 98.75 C 100.277344 98.210938 101.128906 97.757812 102.027344 97.382812 C 102.925781 97.011719 103.847656 96.730469 104.800781 96.539062 C 105.753906 96.347656 106.71875 96.253906 107.6875 96.25 Z M 107.6875 96.25"/></g><g clip-path="url(#c)"><path fill="#6B99D2" d="M 135.09375 168.433594 L 134.695312 168.433594 C 135.183594 166.964844 135.421875 165.453125 135.414062 163.90625 C 135.414062 155.449219 128.453125 148.582031 119.859375 148.582031 C 118.050781 148.570312 116.296875 148.867188 114.59375 149.472656 C 112.894531 150.082031 111.347656 150.960938 109.957031 152.113281 C 109.703125 151.011719 109.359375 149.941406 108.925781 148.898438 C 108.488281 147.855469 107.972656 146.855469 107.367188 145.902344 C 106.761719 144.945312 106.082031 144.046875 105.328125 143.207031 C 104.570312 142.367188 103.75 141.597656 102.863281 140.894531 C 101.976562 140.191406 101.039062 139.570312 100.046875 139.027344 C 99.054688 138.480469 98.023438 138.023438 96.957031 137.65625 C 95.886719 137.285156 94.792969 137.007812 93.679688 136.824219 C 92.5625 136.636719 91.4375 136.546875 90.308594 136.550781 C 79.210938 136.550781 70.21875 145.445312 70.21875 156.402344 C 70.214844 157.671875 70.335938 158.929688 70.578125 160.175781 C 69.746094 160.058594 68.910156 160.007812 68.074219 160.015625 C 58.84375 160.015625 51.328125 167.402344 51.328125 176.53125 C 51.332031 178.011719 51.53125 179.464844 51.929688 180.890625 C 52.324219 182.316406 52.902344 183.667969 53.660156 184.9375 C 54.421875 186.210938 55.335938 187.359375 56.402344 188.382812 C 57.472656 189.410156 58.65625 190.277344 59.957031 190.984375 C 62.046875 192.398438 64.355469 193.097656 66.878906 193.089844 L 135.09375 193.089844 C 135.910156 193.09375 136.71875 193.015625 137.519531 192.859375 C 138.320312 192.703125 139.097656 192.472656 139.851562 192.164062 C 140.609375 191.855469 141.324219 191.476562 142.003906 191.023438 C 142.6875 190.574219 143.316406 190.066406 143.894531 189.492188 C 144.476562 188.917969 144.992188 188.292969 145.449219 187.621094 C 145.90625 186.945312 146.292969 186.230469 146.609375 185.480469 C 146.925781 184.730469 147.167969 183.957031 147.328125 183.160156 C 147.492188 182.363281 147.578125 181.554688 147.582031 180.742188 C 147.582031 173.992188 141.976562 168.433594 135.09375 168.433594 Z M 135.09375 168.433594"/></g><path fill="#6B99D2" d="M 28.496094 107.25 L 28.695312 107.25 C 28.4375 106.394531 28.304688 105.519531 28.296875 104.628906 C 28.296875 104.042969 28.355469 103.460938 28.46875 102.886719 C 28.585938 102.3125 28.753906 101.753906 28.980469 101.214844 C 29.203125 100.675781 29.480469 100.160156 29.808594 99.675781 C 30.132812 99.1875 30.503906 98.738281 30.921875 98.324219 C 31.335938 97.910156 31.789062 97.542969 32.277344 97.21875 C 32.765625 96.894531 33.28125 96.621094 33.824219 96.398438 C 34.367188 96.175781 34.925781 96.011719 35.503906 95.898438 C 36.078125 95.785156 36.660156 95.730469 37.246094 95.734375 C 38.289062 95.730469 39.296875 95.90625 40.273438 96.257812 C 41.253906 96.613281 42.140625 97.128906 42.933594 97.796875 C 43.078125 97.101562 43.285156 96.425781 43.554688 95.769531 C 43.820312 95.113281 44.148438 94.488281 44.535156 93.890625 C 44.917969 93.292969 45.355469 92.738281 45.84375 92.222656 C 46.332031 91.707031 46.863281 91.238281 47.4375 90.820312 C 48.011719 90.402344 48.621094 90.039062 49.261719 89.734375 C 49.902344 89.429688 50.566406 89.183594 51.253906 89 C 51.941406 88.816406 52.636719 88.699219 53.347656 88.644531 C 54.054688 88.589844 54.761719 88.601562 55.46875 88.675781 C 56.175781 88.753906 56.871094 88.894531 57.550781 89.097656 C 58.234375 89.300781 58.890625 89.566406 59.519531 89.890625 C 60.152344 90.21875 60.75 90.597656 61.308594 91.035156 C 61.871094 91.46875 62.386719 91.953125 62.859375 92.484375 C 63.332031 93.015625 63.75 93.582031 64.117188 94.191406 C 64.484375 94.800781 64.789062 95.4375 65.039062 96.101562 C 65.289062 96.765625 65.472656 97.449219 65.59375 98.148438 C 65.71875 98.847656 65.773438 99.550781 65.765625 100.261719 C 65.765625 101.011719 65.6875 101.75 65.527344 102.484375 C 66 102.40625 66.476562 102.363281 66.960938 102.363281 C 67.492188 102.363281 68.019531 102.402344 68.542969 102.488281 C 69.066406 102.570312 69.582031 102.699219 70.085938 102.867188 C 70.589844 103.035156 71.074219 103.246094 71.542969 103.496094 C 72.011719 103.746094 72.457031 104.03125 72.878906 104.355469 C 73.300781 104.679688 73.691406 105.035156 74.054688 105.421875 C 74.414062 105.8125 74.742188 106.226562 75.035156 106.667969 C 75.332031 107.109375 75.585938 107.574219 75.800781 108.058594 C 76.019531 108.542969 76.191406 109.042969 76.328125 109.554688 C 76.460938 110.070312 76.550781 110.589844 76.597656 111.117188 C 76.644531 111.648438 76.648438 112.175781 76.609375 112.703125 C 76.566406 113.234375 76.484375 113.753906 76.355469 114.269531 C 76.230469 114.785156 76.0625 115.285156 75.851562 115.773438 C 75.640625 116.261719 75.390625 116.726562 75.105469 117.171875 C 74.816406 117.621094 74.496094 118.039062 74.136719 118.429688 C 73.78125 118.824219 73.394531 119.183594 72.976562 119.511719 C 72.558594 119.84375 72.117188 120.132812 71.652344 120.390625 C 70.445312 121.1875 69.121094 121.582031 67.675781 121.582031 L 28.496094 121.582031 C 28.023438 121.582031 27.558594 121.535156 27.097656 121.445312 C 26.632812 121.351562 26.1875 121.21875 25.75 121.039062 C 25.316406 120.859375 24.902344 120.640625 24.507812 120.378906 C 24.117188 120.117188 23.753906 119.820312 23.417969 119.492188 C 23.085938 119.160156 22.785156 118.796875 22.523438 118.410156 C 22.261719 118.019531 22.039062 117.605469 21.855469 117.171875 C 21.675781 116.738281 21.535156 116.292969 21.441406 115.832031 C 21.347656 115.371094 21.300781 114.90625 21.296875 114.433594 C 21.300781 113.964844 21.347656 113.496094 21.441406 113.035156 C 21.535156 112.574219 21.671875 112.125 21.855469 111.691406 C 22.039062 111.253906 22.257812 110.84375 22.523438 110.453125 C 22.785156 110.058594 23.082031 109.699219 23.417969 109.363281 C 23.75 109.03125 24.113281 108.734375 24.503906 108.472656 C 24.898438 108.210938 25.3125 107.988281 25.746094 107.804688 C 26.183594 107.625 26.632812 107.488281 27.09375 107.394531 C 27.558594 107.300781 28.023438 107.25 28.496094 107.25 Z M 28.496094 107.25"/></svg>