<svg xmlns="http://www.w3.org/2000/svg" width="224.88" viewBox="0 0 224.88 225" height="225" version="1.0"><defs><clipPath id="a"><path d="M 123 195 L 134 195 L 134 209.480469 L 123 209.480469 Z M 123 195"/></clipPath><clipPath id="b"><path d="M 70 195 L 80 195 L 80 209.480469 L 70 209.480469 Z M 70 195"/></clipPath><clipPath id="c"><path d="M 16.183594 15.332031 L 208.832031 15.332031 L 208.832031 130 L 16.183594 130 Z M 16.183594 15.332031"/></clipPath></defs><path fill="#E5F3FF" d="M 205.664062 214.902344 L 19.25 214.902344 C 13.390625 214.902344 8.554688 210.070312 8.554688 204.210938 L 8.554688 20.78125 C 8.554688 14.921875 13.390625 10.089844 19.25 10.089844 L 205.515625 10.089844 C 211.378906 10.089844 216.210938 14.921875 216.210938 20.78125 L 216.210938 204.0625 C 216.359375 210.070312 211.523438 214.902344 205.664062 214.902344"/><path fill="#E5F3FF" d="M 205.664062 13.3125 C 209.765625 13.3125 213.136719 16.679688 213.136719 20.78125 L 213.136719 204.210938 C 213.136719 208.3125 209.765625 211.679688 205.664062 211.679688 L 19.25 211.679688 C 15.148438 211.679688 11.777344 208.3125 11.777344 204.210938 L 11.777344 20.78125 C 11.777344 16.679688 15.148438 13.3125 19.25 13.3125 L 205.664062 13.3125 M 205.664062 6.425781 L 19.25 6.425781 C 11.339844 6.425781 4.894531 12.871094 4.894531 20.78125 L 4.894531 204.210938 C 4.894531 212.121094 11.339844 218.5625 19.25 218.5625 L 205.664062 218.5625 C 213.574219 218.5625 220.019531 212.121094 220.019531 204.210938 L 220.019531 20.78125 C 220.019531 12.871094 213.574219 6.425781 205.664062 6.425781"/><path fill="#26477A" d="M 48.148438 165.246094 L 46.59375 166.386719 L 46.550781 166.386719 C 45.898438 167.039062 45.351562 167.765625 44.90625 168.574219 C 44.660156 169.046875 44.460938 169.539062 44.3125 170.050781 C 44.160156 170.5625 44.0625 171.082031 44.015625 171.613281 C 43.96875 172.144531 43.972656 172.675781 44.03125 173.207031 C 44.085938 173.734375 44.195312 174.253906 44.355469 174.761719 C 44.515625 175.273438 44.722656 175.761719 44.980469 176.230469 C 45.234375 176.695312 45.535156 177.136719 45.878906 177.542969 C 46.222656 177.953125 46.601562 178.324219 47.015625 178.660156 C 47.433594 178.992188 47.878906 179.285156 48.351562 179.53125 C 48.824219 179.777344 49.316406 179.976562 49.832031 180.125 C 50.34375 180.273438 50.867188 180.375 51.398438 180.421875 C 51.929688 180.46875 52.460938 180.460938 52.992188 180.40625 C 53.523438 180.347656 54.042969 180.238281 54.554688 180.078125 C 55.0625 179.917969 55.550781 179.710938 56.019531 179.457031 C 56.488281 179.199219 56.929688 178.898438 57.335938 178.558594 C 57.746094 178.214844 58.117188 177.835938 58.453125 177.421875 C 58.789062 177.003906 59.078125 176.5625 59.328125 176.089844 C 59.765625 175.273438 60.054688 174.40625 60.195312 173.492188 L 60.195312 171.535156 L 60.46875 156.320312 Z M 48.148438 165.246094"/><path fill="#26477A" d="M 150.402344 167.660156 L 148.851562 168.800781 L 148.808594 168.800781 C 148.144531 169.425781 147.597656 170.140625 147.164062 170.941406 C 146.914062 171.414062 146.714844 171.90625 146.5625 172.417969 C 146.414062 172.929688 146.3125 173.453125 146.265625 173.984375 C 146.214844 174.515625 146.21875 175.046875 146.277344 175.578125 C 146.332031 176.109375 146.4375 176.628906 146.597656 177.136719 C 146.757812 177.648438 146.964844 178.136719 147.21875 178.605469 C 147.476562 179.074219 147.773438 179.515625 148.117188 179.925781 C 148.457031 180.335938 148.835938 180.707031 149.253906 181.042969 C 149.667969 181.378906 150.113281 181.671875 150.585938 181.917969 C 151.058594 182.167969 151.554688 182.367188 152.066406 182.519531 C 152.578125 182.671875 153.101562 182.769531 153.632812 182.820312 C 154.167969 182.867188 154.699219 182.863281 155.230469 182.808594 C 155.761719 182.75 156.285156 182.644531 156.792969 182.484375 C 157.304688 182.328125 157.792969 182.121094 158.265625 181.863281 C 158.734375 181.609375 159.175781 181.3125 159.585938 180.96875 C 159.996094 180.628906 160.371094 180.25 160.707031 179.835938 C 161.042969 179.417969 161.335938 178.976562 161.582031 178.503906 C 162.03125 177.691406 162.320312 176.824219 162.449219 175.90625 L 162.449219 173.949219 L 162.722656 158.734375 Z M 150.402344 167.660156"/><path fill="#3571AA" d="M 98.066406 180.917969 L 96.515625 182.011719 L 96.46875 182.011719 C 95.78125 182.632812 95.234375 183.363281 94.828125 184.195312 C 94.578125 184.667969 94.382812 185.160156 94.230469 185.671875 C 94.082031 186.183594 93.984375 186.707031 93.9375 187.238281 C 93.890625 187.765625 93.894531 188.296875 93.953125 188.828125 C 94.011719 189.355469 94.121094 189.875 94.28125 190.382812 C 94.441406 190.894531 94.648438 191.382812 94.90625 191.847656 C 95.160156 192.316406 95.460938 192.753906 95.804688 193.164062 C 96.144531 193.570312 96.523438 193.941406 96.941406 194.277344 C 97.355469 194.609375 97.800781 194.902344 98.273438 195.148438 C 98.746094 195.394531 99.242188 195.59375 99.753906 195.742188 C 100.265625 195.890625 100.785156 195.992188 101.320312 196.039062 C 101.851562 196.085938 102.382812 196.078125 102.914062 196.023438 C 103.441406 195.964844 103.964844 195.855469 104.472656 195.699219 C 104.980469 195.539062 105.46875 195.332031 105.9375 195.074219 C 106.40625 194.820312 106.847656 194.519531 107.257812 194.179688 C 107.664062 193.835938 108.039062 193.457031 108.371094 193.042969 C 108.707031 192.628906 109 192.183594 109.246094 191.714844 C 109.679688 190.894531 109.96875 190.03125 110.113281 189.117188 L 110.113281 187.15625 L 110.386719 171.941406 Z M 98.066406 180.917969"/><path fill="#3571AA" d="M 83.464844 147.027344 L 81.914062 148.117188 L 81.867188 148.117188 C 81.179688 148.742188 80.632812 149.472656 80.226562 150.304688 C 79.976562 150.777344 79.78125 151.269531 79.628906 151.78125 C 79.480469 152.292969 79.378906 152.816406 79.332031 153.347656 C 79.285156 153.878906 79.292969 154.40625 79.347656 154.9375 C 79.40625 155.46875 79.515625 155.988281 79.675781 156.496094 C 79.835938 157.003906 80.042969 157.492188 80.300781 157.960938 C 80.554688 158.429688 80.855469 158.867188 81.199219 159.273438 C 81.539062 159.683594 81.921875 160.054688 82.335938 160.390625 C 82.753906 160.722656 83.195312 161.015625 83.671875 161.261719 C 84.144531 161.507812 84.636719 161.707031 85.148438 161.855469 C 85.660156 162.003906 86.183594 162.105469 86.714844 162.152344 C 87.246094 162.199219 87.777344 162.195312 88.308594 162.136719 C 88.839844 162.078125 89.359375 161.96875 89.871094 161.808594 C 90.378906 161.652344 90.871094 161.441406 91.335938 161.1875 C 91.804688 160.929688 92.246094 160.632812 92.65625 160.289062 C 93.0625 159.949219 93.4375 159.570312 93.769531 159.152344 C 94.105469 158.738281 94.398438 158.292969 94.644531 157.820312 C 95.078125 157.003906 95.367188 156.140625 95.511719 155.226562 L 95.511719 153.265625 L 95.785156 138.050781 Z M 83.464844 147.027344"/><path fill="#3571AA" d="M 174.816406 145.796875 L 173.902344 146.480469 L 173.859375 146.480469 C 173.460938 146.847656 173.140625 147.273438 172.898438 147.753906 C 172.667969 148.3125 172.546875 148.890625 172.535156 149.492188 C 172.523438 150.09375 172.617188 150.679688 172.824219 151.246094 C 173.03125 151.8125 173.332031 152.320312 173.726562 152.773438 C 174.125 153.230469 174.589844 153.59375 175.125 153.875 C 175.660156 154.15625 176.226562 154.328125 176.824219 154.394531 C 177.425781 154.464844 178.015625 154.421875 178.601562 154.269531 C 179.183594 154.113281 179.71875 153.863281 180.207031 153.507812 C 180.699219 153.15625 181.105469 152.726562 181.433594 152.21875 C 181.683594 151.730469 181.851562 151.214844 181.933594 150.671875 L 181.933594 149.53125 L 182.117188 140.511719 Z M 174.816406 145.796875"/><path fill="#3571AA" d="M 37.242188 144.566406 L 36.328125 145.25 L 36.285156 145.25 C 35.914062 145.636719 35.59375 146.0625 35.324219 146.523438 C 35.144531 146.804688 34.992188 147.105469 34.871094 147.417969 C 34.75 147.730469 34.664062 148.054688 34.609375 148.382812 C 34.558594 148.714844 34.539062 149.050781 34.554688 149.382812 C 34.574219 149.71875 34.625 150.050781 34.710938 150.375 C 34.796875 150.699219 34.914062 151.011719 35.0625 151.308594 C 35.214844 151.609375 35.394531 151.890625 35.605469 152.152344 C 35.8125 152.417969 36.046875 152.65625 36.308594 152.867188 C 36.566406 153.082031 36.84375 153.265625 37.140625 153.421875 C 37.441406 153.578125 37.75 153.703125 38.074219 153.792969 C 38.398438 153.882812 38.726562 153.941406 39.0625 153.964844 C 39.398438 153.984375 39.730469 153.972656 40.066406 153.925781 C 40.398438 153.878906 40.722656 153.796875 41.039062 153.683594 C 41.355469 153.570312 41.65625 153.425781 41.941406 153.246094 C 42.226562 153.070312 42.488281 152.867188 42.730469 152.632812 C 42.976562 152.402344 43.191406 152.148438 43.382812 151.871094 C 43.570312 151.59375 43.730469 151.300781 43.859375 150.988281 C 44.117188 150.5 44.28125 149.984375 44.359375 149.441406 L 44.359375 148.300781 L 44.496094 139.28125 Z M 37.242188 144.566406"/><g clip-path="url(#a)"><path fill="#3571AA" d="M 126.128906 200.503906 L 125.171875 201.144531 C 124.773438 201.527344 124.453125 201.96875 124.210938 202.464844 C 124.066406 202.742188 123.949219 203.035156 123.863281 203.335938 C 123.773438 203.640625 123.714844 203.949219 123.691406 204.261719 C 123.664062 204.574219 123.667969 204.890625 123.699219 205.203125 C 123.734375 205.515625 123.800781 205.824219 123.894531 206.125 C 123.992188 206.425781 124.113281 206.710938 124.265625 206.988281 C 124.417969 207.265625 124.597656 207.523438 124.800781 207.765625 C 125.003906 208.003906 125.226562 208.222656 125.476562 208.421875 C 125.722656 208.617188 125.984375 208.789062 126.265625 208.933594 C 126.546875 209.078125 126.835938 209.195312 127.140625 209.285156 C 127.441406 209.371094 127.753906 209.429688 128.066406 209.457031 C 128.382812 209.484375 128.695312 209.480469 129.007812 209.445312 C 129.324219 209.410156 129.628906 209.34375 129.929688 209.25 C 130.230469 209.152344 130.519531 209.03125 130.796875 208.878906 C 131.074219 208.726562 131.332031 208.546875 131.574219 208.34375 C 131.816406 208.140625 132.035156 207.917969 132.230469 207.671875 C 132.429688 207.425781 132.601562 207.164062 132.746094 206.882812 C 132.976562 206.402344 133.140625 205.902344 133.246094 205.378906 L 133.246094 204.195312 L 133.429688 195.222656 Z M 126.128906 200.503906"/></g><g clip-path="url(#b)"><path fill="#3571AA" d="M 72.558594 200.503906 L 71.648438 201.144531 L 71.601562 201.144531 C 71.203125 201.527344 70.882812 201.96875 70.644531 202.464844 C 70.496094 202.742188 70.382812 203.035156 70.292969 203.335938 C 70.207031 203.640625 70.148438 203.949219 70.121094 204.261719 C 70.09375 204.574219 70.097656 204.890625 70.132812 205.203125 C 70.167969 205.515625 70.230469 205.820312 70.328125 206.121094 C 70.421875 206.421875 70.546875 206.710938 70.699219 206.988281 C 70.851562 207.261719 71.027344 207.519531 71.230469 207.761719 C 71.433594 208.003906 71.660156 208.222656 71.90625 208.417969 C 72.152344 208.617188 72.414062 208.789062 72.695312 208.933594 C 72.976562 209.078125 73.269531 209.195312 73.570312 209.28125 C 73.875 209.367188 74.183594 209.425781 74.496094 209.453125 C 74.8125 209.480469 75.125 209.476562 75.4375 209.441406 C 75.753906 209.40625 76.058594 209.34375 76.359375 209.246094 C 76.660156 209.152344 76.949219 209.027344 77.226562 208.875 C 77.503906 208.722656 77.761719 208.546875 78.003906 208.34375 C 78.246094 208.140625 78.464844 207.917969 78.660156 207.671875 C 78.859375 207.425781 79.03125 207.160156 79.175781 206.882812 C 79.425781 206.410156 79.59375 205.90625 79.675781 205.378906 L 79.675781 204.195312 L 79.859375 195.222656 Z M 72.558594 200.503906"/></g><path fill="#26477A" d="M 123.621094 147.027344 L 122.066406 148.117188 L 122.023438 148.117188 C 121.585938 148.523438 121.199219 148.972656 120.859375 149.460938 C 120.519531 149.949219 120.238281 150.472656 120.015625 151.023438 C 119.789062 151.574219 119.628906 152.144531 119.527344 152.730469 C 119.425781 153.316406 119.394531 153.90625 119.421875 154.5 C 119.453125 155.09375 119.546875 155.679688 119.703125 156.253906 C 119.863281 156.828125 120.078125 157.378906 120.359375 157.902344 C 120.636719 158.429688 120.96875 158.917969 121.355469 159.371094 C 121.742188 159.828125 122.171875 160.234375 122.644531 160.59375 C 123.121094 160.953125 123.628906 161.257812 124.171875 161.503906 C 124.710938 161.753906 125.273438 161.941406 125.859375 162.066406 C 126.441406 162.191406 127.03125 162.25 127.625 162.25 C 128.222656 162.246094 128.8125 162.175781 129.390625 162.046875 C 129.972656 161.914062 130.535156 161.71875 131.070312 161.464844 C 131.609375 161.210938 132.117188 160.902344 132.585938 160.535156 C 133.058594 160.171875 133.484375 159.761719 133.863281 159.300781 C 134.246094 158.84375 134.570312 158.351562 134.84375 157.820312 C 135.242188 156.996094 135.515625 156.128906 135.664062 155.226562 L 135.664062 153.265625 L 135.941406 138.050781 Z M 123.621094 147.027344"/><g clip-path="url(#c)"><path fill="#26477A" d="M 183.761719 79.746094 L 182.984375 79.746094 C 183.914062 76.777344 184.371094 73.742188 184.351562 70.632812 C 184.355469 69.171875 184.25 67.714844 184.046875 66.265625 C 183.839844 64.816406 183.535156 63.390625 183.125 61.984375 C 182.71875 60.578125 182.210938 59.207031 181.609375 57.875 C 181.007812 56.542969 180.3125 55.257812 179.527344 54.019531 C 178.742188 52.785156 177.875 51.609375 176.921875 50.496094 C 175.972656 49.382812 174.945312 48.34375 173.847656 47.375 C 172.746094 46.410156 171.585938 45.523438 170.359375 44.71875 C 169.132812 43.917969 167.859375 43.203125 166.53125 42.582031 C 165.207031 41.957031 163.839844 41.429688 162.441406 41 C 161.039062 40.570312 159.613281 40.242188 158.167969 40.015625 C 156.71875 39.785156 155.261719 39.660156 153.796875 39.636719 C 152.332031 39.617188 150.871094 39.695312 149.417969 39.882812 C 147.964844 40.066406 146.527344 40.351562 145.117188 40.738281 C 143.703125 41.125 142.324219 41.609375 140.976562 42.191406 C 139.632812 42.773438 138.335938 43.449219 137.085938 44.214844 C 135.839844 44.980469 134.648438 45.828125 133.519531 46.765625 C 133.261719 45.566406 132.945312 44.382812 132.578125 43.214844 C 132.207031 42.042969 131.785156 40.894531 131.3125 39.765625 C 130.835938 38.632812 130.3125 37.527344 129.734375 36.445312 C 129.160156 35.363281 128.535156 34.308594 127.863281 33.285156 C 127.1875 32.257812 126.46875 31.265625 125.707031 30.308594 C 124.941406 29.347656 124.136719 28.425781 123.285156 27.539062 C 122.4375 26.65625 121.550781 25.8125 120.625 25.007812 C 119.695312 24.203125 118.734375 23.441406 117.738281 22.726562 C 116.742188 22.011719 115.714844 21.339844 114.65625 20.71875 C 113.601562 20.097656 112.515625 19.523438 111.40625 19 C 110.292969 18.480469 109.164062 18.007812 108.007812 17.589844 C 106.855469 17.171875 105.683594 16.804688 104.496094 16.492188 C 103.308594 16.179688 102.109375 15.921875 100.898438 15.722656 C 99.6875 15.519531 98.472656 15.375 97.246094 15.28125 C 96.023438 15.191406 94.796875 15.15625 93.570312 15.179688 C 92.339844 15.199219 91.117188 15.277344 89.898438 15.414062 C 88.675781 15.546875 87.464844 15.734375 86.261719 15.980469 C 85.058594 16.222656 83.871094 16.523438 82.695312 16.878906 C 81.519531 17.230469 80.363281 17.636719 79.222656 18.097656 C 78.085938 18.554688 76.972656 19.066406 75.878906 19.628906 C 74.789062 20.191406 73.726562 20.800781 72.691406 21.460938 C 71.65625 22.117188 70.652344 22.824219 69.679688 23.574219 C 68.710938 24.324219 67.777344 25.117188 66.878906 25.953125 C 65.980469 26.792969 65.125 27.667969 64.308594 28.582031 C 63.492188 29.496094 62.71875 30.445312 61.988281 31.433594 C 61.257812 32.417969 60.574219 33.433594 59.9375 34.484375 C 59.300781 35.53125 58.714844 36.605469 58.175781 37.707031 C 57.640625 38.808594 57.152344 39.933594 56.71875 41.082031 C 56.285156 42.226562 55.90625 43.390625 55.578125 44.570312 C 55.25 45.753906 54.976562 46.949219 54.761719 48.152344 C 54.542969 49.359375 54.378906 50.574219 54.273438 51.792969 C 54.167969 53.015625 54.117188 54.238281 54.125 55.464844 C 54.113281 58.039062 54.359375 60.589844 54.855469 63.117188 C 53.191406 62.859375 51.519531 62.738281 49.835938 62.753906 C 47.992188 62.746094 46.160156 62.894531 44.339844 63.191406 C 42.519531 63.488281 40.734375 63.929688 38.988281 64.523438 C 37.242188 65.113281 35.554688 65.84375 33.929688 66.714844 C 32.304688 67.585938 30.761719 68.582031 29.300781 69.707031 C 27.839844 70.832031 26.480469 72.070312 25.226562 73.417969 C 23.96875 74.765625 22.835938 76.210938 21.820312 77.746094 C 20.800781 79.285156 19.917969 80.894531 19.171875 82.578125 C 18.421875 84.257812 17.816406 85.992188 17.351562 87.773438 C 16.890625 89.558594 16.578125 91.363281 16.414062 93.199219 C 16.253906 95.035156 16.242188 96.867188 16.382812 98.703125 C 16.523438 100.539062 16.816406 102.351562 17.257812 104.140625 C 17.699219 105.929688 18.285156 107.667969 19.015625 109.359375 C 19.746094 111.050781 20.609375 112.667969 21.609375 114.21875 C 22.605469 115.765625 23.726562 117.222656 24.964844 118.585938 C 26.207031 119.949219 27.550781 121.203125 28.996094 122.34375 C 30.445312 123.484375 31.976562 124.5 33.589844 125.386719 C 35.636719 126.753906 37.835938 127.796875 40.191406 128.511719 C 42.546875 129.222656 44.957031 129.582031 47.417969 129.578125 L 183.761719 129.578125 C 184.578125 129.578125 185.390625 129.535156 186.203125 129.453125 C 187.019531 129.375 187.824219 129.253906 188.625 129.09375 C 189.425781 128.933594 190.21875 128.734375 191 128.496094 C 191.78125 128.257812 192.550781 127.984375 193.304688 127.671875 C 194.058594 127.359375 194.796875 127.007812 195.515625 126.625 C 196.238281 126.238281 196.9375 125.820312 197.617188 125.367188 C 198.296875 124.914062 198.949219 124.425781 199.582031 123.910156 C 200.214844 123.390625 200.816406 122.84375 201.394531 122.269531 C 201.972656 121.691406 202.523438 121.085938 203.039062 120.457031 C 203.558594 119.828125 204.046875 119.171875 204.5 118.496094 C 204.953125 117.816406 205.375 117.117188 205.757812 116.398438 C 206.144531 115.679688 206.496094 114.945312 206.808594 114.191406 C 207.121094 113.4375 207.398438 112.671875 207.632812 111.890625 C 207.871094 111.109375 208.070312 110.320312 208.234375 109.519531 C 208.394531 108.71875 208.515625 107.914062 208.59375 107.101562 C 208.675781 106.289062 208.71875 105.476562 208.71875 104.660156 C 208.71875 103.847656 208.675781 103.03125 208.59375 102.222656 C 208.515625 101.410156 208.394531 100.601562 208.234375 99.804688 C 208.070312 99.003906 207.871094 98.214844 207.632812 97.433594 C 207.398438 96.652344 207.121094 95.886719 206.808594 95.132812 C 206.496094 94.378906 206.144531 93.644531 205.757812 92.925781 C 205.375 92.207031 204.953125 91.507812 204.5 90.828125 C 204.046875 90.152344 203.558594 89.496094 203.039062 88.867188 C 202.523438 88.234375 201.972656 87.632812 201.394531 87.054688 C 200.816406 86.480469 200.214844 85.933594 199.582031 85.414062 C 198.949219 84.898438 198.296875 84.410156 197.617188 83.957031 C 196.9375 83.503906 196.238281 83.085938 195.515625 82.699219 C 194.796875 82.316406 194.058594 81.964844 193.304688 81.652344 C 192.550781 81.339844 191.78125 81.066406 191 80.828125 C 190.21875 80.589844 189.425781 80.390625 188.625 80.230469 C 187.824219 80.070312 187.019531 79.949219 186.203125 79.867188 C 185.390625 79.785156 184.578125 79.746094 183.761719 79.746094 Z M 183.761719 79.746094"/></g></svg>