<svg xmlns="http://www.w3.org/2000/svg" width="224.88" viewBox="0 0 224.88 225" height="225" version="1.0"><defs><clipPath id="a"><path d="M 72 182 L 76 182 L 76 204.824219 L 72 204.824219 Z M 72 182"/></clipPath><clipPath id="b"><path d="M 19 18.171875 L 205.648438 18.171875 L 205.648438 130 L 19 130 Z M 19 18.171875"/></clipPath></defs><path fill="#E5F3FF" d="M 203.859375 212.355469 L 21.933594 212.355469 C 16.378906 212.355469 11.796875 207.78125 11.796875 202.234375 L 11.796875 21.015625 C 11.796875 15.46875 16.378906 10.894531 21.933594 10.894531 L 203.722656 10.894531 C 209.273438 10.894531 213.855469 15.46875 213.855469 21.015625 L 213.855469 202.097656 C 213.992188 207.78125 209.414062 212.355469 203.859375 212.355469"/><path fill="#E5F3FF" d="M 203.859375 13.945312 C 207.746094 13.945312 210.941406 17.132812 210.941406 21.015625 L 210.941406 202.234375 C 210.941406 206.117188 207.746094 209.304688 203.859375 209.304688 L 21.933594 209.304688 C 18.046875 209.304688 14.851562 206.117188 14.851562 202.234375 L 14.851562 21.015625 C 14.851562 17.132812 18.046875 13.945312 21.933594 13.945312 L 203.859375 13.945312 M 203.859375 7.429688 L 21.933594 7.429688 C 14.4375 7.429688 8.328125 13.53125 8.328125 21.015625 L 8.328125 202.234375 C 8.328125 209.71875 14.4375 215.820312 21.933594 215.820312 L 203.859375 215.820312 C 211.355469 215.820312 217.464844 209.71875 217.464844 202.234375 L 217.464844 21.015625 C 217.464844 13.53125 211.355469 7.429688 203.859375 7.429688"/><path fill="#6B99D2" d="M 63.941406 142.207031 L 66.15625 142.207031 C 66.339844 142.207031 66.496094 142.273438 66.625 142.402344 C 66.757812 142.53125 66.820312 142.6875 66.820312 142.871094 L 66.820312 167.535156 C 66.820312 167.71875 66.757812 167.875 66.625 168.003906 C 66.496094 168.132812 66.339844 168.199219 66.15625 168.199219 L 63.941406 168.199219 C 63.757812 168.199219 63.601562 168.132812 63.472656 168.003906 C 63.34375 167.875 63.277344 167.71875 63.277344 167.535156 L 63.277344 142.871094 C 63.277344 142.6875 63.34375 142.53125 63.472656 142.402344 C 63.601562 142.273438 63.757812 142.207031 63.941406 142.207031 Z M 63.941406 142.207031"/><path fill="#6B99D2" d="M 78.070312 154.121094 L 78.070312 156.335938 C 78.070312 156.519531 78.003906 156.675781 77.875 156.804688 C 77.746094 156.933594 77.589844 157 77.40625 157 L 52.742188 157 C 52.5625 157 52.402344 156.933594 52.273438 156.804688 C 52.144531 156.675781 52.078125 156.519531 52.078125 156.335938 L 52.078125 154.121094 C 52.078125 153.9375 52.144531 153.78125 52.273438 153.652344 C 52.402344 153.519531 52.5625 153.457031 52.742188 153.457031 L 77.40625 153.457031 C 77.589844 153.457031 77.746094 153.519531 77.875 153.652344 C 78.003906 153.78125 78.070312 153.9375 78.070312 154.121094 Z M 78.070312 154.121094"/><path fill="#6B99D2" d="M 73.464844 145.253906 L 75.03125 146.820312 C 75.160156 146.949219 75.226562 147.105469 75.226562 147.289062 C 75.226562 147.472656 75.160156 147.628906 75.03125 147.761719 L 57.59375 165.199219 C 57.464844 165.328125 57.308594 165.390625 57.125 165.390625 C 56.941406 165.390625 56.785156 165.328125 56.65625 165.199219 L 55.089844 163.632812 C 54.960938 163.503906 54.894531 163.347656 54.894531 163.164062 C 54.894531 162.980469 54.960938 162.824219 55.089844 162.691406 L 72.527344 145.253906 C 72.65625 145.125 72.8125 145.058594 72.996094 145.058594 C 73.179688 145.058594 73.335938 145.125 73.464844 145.253906 Z M 73.464844 145.253906"/><path fill="#6B99D2" d="M 75.066406 163.644531 L 73.5 165.207031 C 73.371094 165.339844 73.214844 165.402344 73.03125 165.402344 C 72.847656 165.402344 72.691406 165.339844 72.5625 165.207031 L 55.125 147.769531 C 54.996094 147.640625 54.929688 147.484375 54.929688 147.300781 C 54.929688 147.117188 54.996094 146.960938 55.125 146.832031 L 56.691406 145.265625 C 56.820312 145.136719 56.976562 145.070312 57.160156 145.070312 C 57.34375 145.070312 57.5 145.136719 57.628906 145.265625 L 75.066406 162.703125 C 75.195312 162.832031 75.261719 162.988281 75.261719 163.171875 C 75.261719 163.355469 75.195312 163.511719 75.066406 163.644531 Z M 75.066406 163.644531"/><path fill="#6B99D2" d="M 167.917969 141.058594 L 170.132812 141.058594 C 170.316406 141.058594 170.472656 141.121094 170.601562 141.25 C 170.730469 141.382812 170.796875 141.539062 170.796875 141.722656 L 170.796875 166.382812 C 170.796875 166.566406 170.730469 166.722656 170.601562 166.851562 C 170.472656 166.980469 170.316406 167.046875 170.132812 167.046875 L 167.917969 167.046875 C 167.734375 167.046875 167.578125 166.980469 167.449219 166.851562 C 167.320312 166.722656 167.253906 166.566406 167.253906 166.382812 L 167.253906 141.722656 C 167.253906 141.539062 167.320312 141.382812 167.449219 141.25 C 167.578125 141.121094 167.734375 141.058594 167.917969 141.058594 Z M 167.917969 141.058594"/><path fill="#6B99D2" d="M 182.042969 152.925781 L 182.042969 155.140625 C 182.042969 155.324219 181.980469 155.480469 181.851562 155.609375 C 181.71875 155.738281 181.5625 155.804688 181.378906 155.804688 L 156.71875 155.804688 C 156.535156 155.804688 156.378906 155.738281 156.25 155.609375 C 156.121094 155.480469 156.054688 155.324219 156.054688 155.140625 L 156.054688 152.925781 C 156.054688 152.742188 156.121094 152.585938 156.25 152.457031 C 156.378906 152.324219 156.535156 152.261719 156.71875 152.261719 L 181.378906 152.261719 C 181.5625 152.261719 181.71875 152.324219 181.851562 152.457031 C 181.980469 152.585938 182.042969 152.742188 182.042969 152.925781 Z M 182.042969 152.925781"/><path fill="#6B99D2" d="M 177.457031 144.066406 L 179.023438 145.632812 C 179.152344 145.761719 179.21875 145.917969 179.21875 146.101562 C 179.21875 146.285156 179.152344 146.441406 179.023438 146.574219 L 161.585938 164.011719 C 161.457031 164.140625 161.300781 164.207031 161.117188 164.207031 C 160.933594 164.207031 160.777344 164.140625 160.644531 164.011719 L 159.082031 162.445312 C 158.949219 162.316406 158.886719 162.160156 158.886719 161.976562 C 158.886719 161.792969 158.949219 161.636719 159.082031 161.507812 L 176.519531 144.066406 C 176.648438 143.9375 176.804688 143.875 176.988281 143.875 C 177.171875 143.875 177.328125 143.9375 177.457031 144.066406 Z M 177.457031 144.066406"/><path fill="#6B99D2" d="M 179.03125 162.464844 L 177.46875 164.03125 C 177.335938 164.160156 177.179688 164.226562 176.996094 164.226562 C 176.816406 164.226562 176.65625 164.160156 176.527344 164.03125 L 159.089844 146.59375 C 158.960938 146.460938 158.894531 146.304688 158.894531 146.121094 C 158.894531 145.9375 158.960938 145.78125 159.089844 145.652344 L 160.65625 144.085938 C 160.785156 143.957031 160.941406 143.894531 161.125 143.894531 C 161.308594 143.894531 161.464844 143.957031 161.59375 144.085938 L 179.03125 161.523438 C 179.164062 161.65625 179.226562 161.8125 179.226562 161.996094 C 179.226562 162.179688 179.164062 162.335938 179.03125 162.464844 Z M 179.03125 162.464844"/><path fill="#26477A" d="M 123.769531 137.515625 L 125.671875 137.515625 C 125.832031 137.515625 125.96875 137.570312 126.078125 137.683594 C 126.191406 137.796875 126.25 137.929688 126.25 138.089844 L 126.25 159.386719 C 126.25 159.542969 126.191406 159.679688 126.078125 159.792969 C 125.96875 159.90625 125.832031 159.960938 125.671875 159.960938 L 123.769531 159.960938 C 123.609375 159.960938 123.472656 159.90625 123.363281 159.792969 C 123.25 159.679688 123.191406 159.542969 123.191406 159.386719 L 123.191406 138.089844 C 123.191406 137.929688 123.25 137.796875 123.363281 137.683594 C 123.472656 137.570312 123.609375 137.515625 123.769531 137.515625 Z M 123.769531 137.515625"/><path fill="#26477A" d="M 135.992188 147.789062 L 135.992188 149.691406 C 135.992188 149.851562 135.933594 149.988281 135.820312 150.097656 C 135.710938 150.210938 135.574219 150.269531 135.414062 150.269531 L 114.121094 150.269531 C 113.960938 150.269531 113.824219 150.210938 113.710938 150.097656 C 113.601562 149.988281 113.542969 149.851562 113.542969 149.691406 L 113.542969 147.789062 C 113.542969 147.628906 113.601562 147.492188 113.710938 147.382812 C 113.824219 147.269531 113.960938 147.210938 114.121094 147.210938 L 135.414062 147.210938 C 135.574219 147.210938 135.710938 147.269531 135.820312 147.382812 C 135.933594 147.492188 135.992188 147.628906 135.992188 147.789062 Z M 135.992188 147.789062"/><path fill="#26477A" d="M 132.003906 140.101562 L 133.351562 141.449219 C 133.464844 141.5625 133.519531 141.695312 133.519531 141.855469 C 133.519531 142.015625 133.464844 142.148438 133.351562 142.261719 L 118.292969 157.320312 C 118.179688 157.433594 118.046875 157.488281 117.886719 157.488281 C 117.726562 157.488281 117.59375 157.433594 117.480469 157.320312 L 116.132812 155.972656 C 116.019531 155.863281 115.964844 155.726562 115.964844 155.566406 C 115.964844 155.410156 116.019531 155.273438 116.132812 155.160156 L 131.191406 140.101562 C 131.304688 139.988281 131.441406 139.933594 131.597656 139.933594 C 131.757812 139.933594 131.894531 139.988281 132.003906 140.101562 Z M 132.003906 140.101562"/><path fill="#26477A" d="M 133.359375 155.980469 L 132.011719 157.328125 C 131.898438 157.441406 131.765625 157.496094 131.605469 157.496094 C 131.445312 157.496094 131.3125 157.441406 131.199219 157.328125 L 116.140625 142.269531 C 116.027344 142.15625 115.972656 142.019531 115.972656 141.863281 C 115.972656 141.703125 116.027344 141.566406 116.140625 141.453125 L 117.488281 140.109375 C 117.597656 139.996094 117.734375 139.941406 117.894531 139.941406 C 118.050781 139.941406 118.1875 139.996094 118.300781 140.109375 L 133.359375 155.167969 C 133.472656 155.277344 133.527344 155.414062 133.527344 155.574219 C 133.527344 155.734375 133.472656 155.867188 133.359375 155.980469 Z M 133.359375 155.980469"/><g clip-path="url(#a)"><path fill="#26477A" d="M 72.976562 182.371094 L 74.882812 182.371094 C 75.039062 182.371094 75.175781 182.429688 75.289062 182.542969 C 75.398438 182.652344 75.457031 182.789062 75.457031 182.949219 L 75.457031 204.242188 C 75.457031 204.402344 75.398438 204.539062 75.289062 204.652344 C 75.175781 204.761719 75.039062 204.820312 74.882812 204.820312 L 72.976562 204.820312 C 72.816406 204.820312 72.683594 204.761719 72.570312 204.652344 C 72.457031 204.539062 72.402344 204.402344 72.402344 204.242188 L 72.402344 182.949219 C 72.402344 182.789062 72.457031 182.652344 72.570312 182.542969 C 72.683594 182.429688 72.816406 182.371094 72.976562 182.371094 Z M 72.976562 182.371094"/></g><path fill="#26477A" d="M 85.15625 192.691406 L 85.15625 194.59375 C 85.15625 194.753906 85.097656 194.890625 84.984375 195 C 84.875 195.113281 84.738281 195.171875 84.578125 195.171875 L 63.285156 195.171875 C 63.125 195.171875 62.988281 195.113281 62.875 195 C 62.765625 194.890625 62.707031 194.753906 62.707031 194.59375 L 62.707031 192.691406 C 62.707031 192.53125 62.765625 192.394531 62.875 192.285156 C 62.988281 192.171875 63.125 192.113281 63.285156 192.113281 L 84.578125 192.113281 C 84.738281 192.113281 84.875 192.171875 84.984375 192.285156 C 85.097656 192.394531 85.15625 192.53125 85.15625 192.691406 Z M 85.15625 192.691406"/><path fill="#26477A" d="M 81.210938 185.003906 L 82.558594 186.347656 C 82.671875 186.460938 82.726562 186.597656 82.726562 186.757812 C 82.726562 186.914062 82.671875 187.050781 82.558594 187.164062 L 67.5 202.222656 C 67.386719 202.332031 67.25 202.390625 67.09375 202.390625 C 66.933594 202.390625 66.796875 202.332031 66.683594 202.222656 L 65.339844 200.875 C 65.226562 200.761719 65.171875 200.625 65.171875 200.46875 C 65.171875 200.308594 65.226562 200.171875 65.339844 200.0625 L 80.398438 185.003906 C 80.507812 184.890625 80.644531 184.835938 80.804688 184.835938 C 80.964844 184.835938 81.097656 184.890625 81.210938 185.003906 Z M 81.210938 185.003906"/><path fill="#26477A" d="M 82.523438 200.878906 L 81.179688 202.226562 C 81.066406 202.339844 80.929688 202.394531 80.769531 202.394531 C 80.613281 202.394531 80.476562 202.339844 80.363281 202.226562 L 65.304688 187.167969 C 65.191406 187.054688 65.136719 186.921875 65.136719 186.761719 C 65.136719 186.601562 65.191406 186.46875 65.304688 186.355469 L 66.652344 185.007812 C 66.765625 184.894531 66.898438 184.839844 67.058594 184.839844 C 67.21875 184.839844 67.355469 184.894531 67.464844 185.007812 L 82.523438 200.066406 C 82.636719 200.179688 82.691406 200.316406 82.691406 200.472656 C 82.691406 200.632812 82.636719 200.769531 82.523438 200.878906 Z M 82.523438 200.878906"/><path fill="#26477A" d="M 158.796875 184.765625 L 160.390625 184.765625 C 160.523438 184.765625 160.640625 184.8125 160.734375 184.90625 C 160.828125 185 160.878906 185.117188 160.878906 185.25 L 160.878906 203.179688 C 160.878906 203.316406 160.828125 203.429688 160.734375 203.527344 C 160.640625 203.621094 160.523438 203.667969 160.390625 203.667969 L 158.796875 203.667969 C 158.660156 203.667969 158.546875 203.621094 158.453125 203.527344 C 158.355469 203.429688 158.308594 203.316406 158.308594 203.179688 L 158.308594 185.25 C 158.308594 185.117188 158.355469 185 158.453125 184.90625 C 158.546875 184.8125 158.660156 184.765625 158.796875 184.765625 Z M 158.796875 184.765625"/><path fill="#26477A" d="M 169.023438 193.398438 L 169.023438 194.992188 C 169.023438 195.128906 168.976562 195.242188 168.882812 195.335938 C 168.789062 195.433594 168.671875 195.480469 168.539062 195.480469 L 150.609375 195.480469 C 150.472656 195.480469 150.359375 195.433594 150.265625 195.335938 C 150.167969 195.242188 150.121094 195.128906 150.121094 194.992188 L 150.121094 193.398438 C 150.121094 193.265625 150.167969 193.148438 150.265625 193.054688 C 150.359375 192.960938 150.472656 192.910156 150.609375 192.910156 L 168.539062 192.910156 C 168.671875 192.910156 168.789062 192.960938 168.882812 193.054688 C 168.976562 193.148438 169.023438 193.265625 169.023438 193.398438 Z M 169.023438 193.398438"/><path fill="#26477A" d="M 165.679688 186.945312 L 166.804688 188.070312 C 166.902344 188.167969 166.949219 188.28125 166.949219 188.417969 C 166.949219 188.550781 166.902344 188.664062 166.804688 188.761719 L 154.128906 201.4375 C 154.03125 201.535156 153.917969 201.582031 153.785156 201.582031 C 153.648438 201.582031 153.535156 201.535156 153.4375 201.4375 L 152.3125 200.3125 C 152.214844 200.214844 152.167969 200.101562 152.167969 199.96875 C 152.167969 199.832031 152.214844 199.71875 152.3125 199.621094 L 164.988281 186.945312 C 165.085938 186.847656 165.199219 186.800781 165.335938 186.800781 C 165.46875 186.800781 165.582031 186.847656 165.679688 186.945312 Z M 165.679688 186.945312"/><path fill="#26477A" d="M 166.84375 200.28125 L 165.71875 201.410156 C 165.621094 201.503906 165.507812 201.550781 165.375 201.550781 C 165.238281 201.550781 165.125 201.503906 165.027344 201.410156 L 152.351562 188.730469 C 152.253906 188.636719 152.207031 188.519531 152.207031 188.386719 C 152.207031 188.253906 152.253906 188.136719 152.351562 188.042969 L 153.476562 186.914062 C 153.574219 186.820312 153.6875 186.773438 153.820312 186.773438 C 153.957031 186.773438 154.070312 186.820312 154.167969 186.914062 L 166.84375 199.59375 C 166.941406 199.6875 166.988281 199.804688 166.988281 199.9375 C 166.988281 200.070312 166.941406 200.1875 166.84375 200.28125 Z M 166.84375 200.28125"/><path fill="#6B99D2" d="M 104.550781 170.59375 L 105.921875 170.59375 C 106.046875 170.59375 106.148438 170.636719 106.234375 170.722656 C 106.324219 170.808594 106.367188 170.914062 106.367188 171.035156 L 106.367188 186.691406 C 106.367188 186.8125 106.324219 186.917969 106.234375 187.003906 C 106.148438 187.089844 106.046875 187.132812 105.921875 187.132812 L 104.550781 187.132812 C 104.429688 187.132812 104.324219 187.089844 104.238281 187.003906 C 104.152344 186.917969 104.105469 186.8125 104.105469 186.691406 L 104.105469 171.035156 C 104.105469 170.914062 104.152344 170.808594 104.238281 170.722656 C 104.324219 170.636719 104.429688 170.59375 104.550781 170.59375 Z M 104.550781 170.59375"/><path fill="#6B99D2" d="M 113.539062 178.164062 L 113.539062 179.539062 C 113.539062 179.660156 113.496094 179.765625 113.410156 179.851562 C 113.324219 179.9375 113.21875 179.980469 113.097656 179.980469 L 97.441406 179.980469 C 97.320312 179.980469 97.214844 179.9375 97.128906 179.851562 C 97.042969 179.765625 97 179.660156 97 179.539062 L 97 178.164062 C 97 178.042969 97.042969 177.9375 97.128906 177.851562 C 97.214844 177.765625 97.320312 177.722656 97.441406 177.722656 L 113.097656 177.722656 C 113.21875 177.722656 113.324219 177.765625 113.410156 177.851562 C 113.496094 177.9375 113.539062 178.042969 113.539062 178.164062 Z M 113.539062 178.164062"/><path fill="#6B99D2" d="M 110.613281 172.53125 L 111.585938 173.503906 C 111.671875 173.589844 111.714844 173.691406 111.714844 173.816406 C 111.714844 173.9375 111.671875 174.042969 111.585938 174.128906 L 100.515625 185.195312 C 100.429688 185.285156 100.324219 185.328125 100.203125 185.328125 C 100.078125 185.328125 99.976562 185.285156 99.890625 185.195312 L 98.917969 184.226562 C 98.832031 184.140625 98.789062 184.035156 98.789062 183.914062 C 98.789062 183.792969 98.832031 183.6875 98.917969 183.601562 L 109.988281 172.53125 C 110.074219 172.445312 110.179688 172.402344 110.300781 172.402344 C 110.421875 172.402344 110.527344 172.445312 110.613281 172.53125 Z M 110.613281 172.53125"/><path fill="#6B99D2" d="M 111.554688 184.230469 L 110.585938 185.199219 C 110.5 185.285156 110.394531 185.328125 110.273438 185.328125 C 110.152344 185.328125 110.046875 185.285156 109.960938 185.199219 L 98.890625 174.128906 C 98.804688 174.042969 98.761719 173.941406 98.761719 173.816406 C 98.761719 173.695312 98.804688 173.589844 98.890625 173.503906 L 99.863281 172.535156 C 99.949219 172.449219 100.050781 172.402344 100.175781 172.402344 C 100.296875 172.402344 100.402344 172.449219 100.488281 172.535156 L 111.554688 183.601562 C 111.644531 183.6875 111.6875 183.792969 111.6875 183.914062 C 111.6875 184.039062 111.644531 184.140625 111.554688 184.230469 Z M 111.554688 184.230469"/><g clip-path="url(#b)"><path fill="#26477A" d="M 181.425781 80.789062 L 180.671875 80.789062 C 181.570312 77.90625 182.011719 74.953125 182 71.933594 C 182 70.511719 181.902344 69.09375 181.703125 67.6875 C 181.503906 66.277344 181.203125 64.890625 180.808594 63.523438 C 180.414062 62.15625 179.921875 60.828125 179.335938 59.53125 C 178.753906 58.234375 178.078125 56.984375 177.316406 55.78125 C 176.554688 54.582031 175.710938 53.441406 174.789062 52.359375 C 173.867188 51.277344 172.871094 50.265625 171.804688 49.324219 C 170.734375 48.382812 169.609375 47.523438 168.417969 46.742188 C 167.230469 45.960938 165.992188 45.265625 164.703125 44.660156 C 163.417969 44.054688 162.09375 43.542969 160.734375 43.125 C 159.375 42.707031 157.992188 42.390625 156.585938 42.167969 C 155.183594 41.945312 153.769531 41.824219 152.347656 41.800781 C 150.925781 41.78125 149.507812 41.859375 148.097656 42.039062 C 146.683594 42.214844 145.292969 42.496094 143.921875 42.871094 C 142.550781 43.246094 141.210938 43.71875 139.90625 44.285156 C 138.601562 44.851562 137.34375 45.503906 136.128906 46.25 C 134.917969 46.996094 133.765625 47.820312 132.667969 48.726562 C 132.417969 47.5625 132.113281 46.414062 131.753906 45.277344 C 131.394531 44.140625 130.988281 43.023438 130.527344 41.925781 C 130.066406 40.828125 129.558594 39.753906 128.996094 38.703125 C 128.4375 37.648438 127.832031 36.625 127.179688 35.628906 C 126.527344 34.632812 125.832031 33.667969 125.089844 32.738281 C 124.347656 31.804688 123.566406 30.910156 122.742188 30.046875 C 121.917969 29.1875 121.058594 28.367188 120.160156 27.585938 C 119.261719 26.804688 118.328125 26.0625 117.363281 25.367188 C 116.394531 24.671875 115.398438 24.023438 114.375 23.417969 C 113.347656 22.8125 112.296875 22.253906 111.21875 21.746094 C 110.140625 21.238281 109.042969 20.78125 107.925781 20.375 C 106.804688 19.964844 105.671875 19.609375 104.519531 19.304688 C 103.367188 19.003906 102.203125 18.753906 101.03125 18.554688 C 99.855469 18.359375 98.671875 18.214844 97.484375 18.128906 C 96.296875 18.039062 95.109375 18.003906 93.917969 18.023438 C 92.726562 18.046875 91.539062 18.121094 90.355469 18.25 C 89.171875 18.378906 87.996094 18.5625 86.828125 18.800781 C 85.664062 19.035156 84.507812 19.324219 83.367188 19.667969 C 82.226562 20.011719 81.105469 20.40625 80 20.851562 C 78.894531 21.296875 77.8125 21.792969 76.753906 22.339844 C 75.695312 22.882812 74.664062 23.476562 73.660156 24.113281 C 72.65625 24.753906 71.683594 25.4375 70.738281 26.167969 C 69.796875 26.894531 68.890625 27.667969 68.019531 28.476562 C 67.148438 29.289062 66.316406 30.140625 65.523438 31.027344 C 64.730469 31.917969 63.976562 32.839844 63.269531 33.796875 C 62.5625 34.753906 61.898438 35.742188 61.277344 36.757812 C 60.660156 37.777344 60.089844 38.820312 59.566406 39.890625 C 59.046875 40.960938 58.574219 42.054688 58.152344 43.167969 C 57.726562 44.28125 57.359375 45.410156 57.039062 46.558594 C 56.71875 47.707031 56.453125 48.867188 56.242188 50.039062 C 56.03125 51.210938 55.871094 52.390625 55.765625 53.574219 C 55.664062 54.761719 55.613281 55.949219 55.617188 57.140625 C 55.605469 59.644531 55.839844 62.125 56.328125 64.582031 C 54.710938 64.351562 53.085938 64.234375 51.457031 64.226562 C 49.671875 64.230469 47.898438 64.382812 46.136719 64.675781 C 44.375 64.972656 42.652344 65.410156 40.964844 65.992188 C 39.273438 66.570312 37.644531 67.285156 36.074219 68.132812 C 34.503906 68.984375 33.011719 69.953125 31.601562 71.050781 C 30.191406 72.144531 28.878906 73.347656 27.667969 74.65625 C 26.457031 75.96875 25.359375 77.367188 24.375 78.859375 C 23.394531 80.351562 22.542969 81.910156 21.816406 83.542969 C 21.09375 85.175781 20.507812 86.855469 20.058594 88.582031 C 19.613281 90.3125 19.308594 92.066406 19.152344 93.84375 C 18.992188 95.621094 18.980469 97.402344 19.117188 99.179688 C 19.25 100.960938 19.527344 102.71875 19.953125 104.453125 C 20.378906 106.1875 20.941406 107.875 21.644531 109.515625 C 22.34375 111.15625 23.175781 112.730469 24.140625 114.234375 C 25.101562 115.738281 26.179688 117.15625 27.371094 118.480469 C 28.566406 119.808594 29.863281 121.027344 31.257812 122.140625 C 32.65625 123.253906 34.132812 124.246094 35.691406 125.117188 C 37.671875 126.453125 39.808594 127.46875 42.09375 128.171875 C 44.378906 128.875 46.71875 129.226562 49.109375 129.234375 L 181.425781 129.234375 C 182.21875 129.230469 183.007812 129.191406 183.796875 129.113281 C 184.585938 129.035156 185.371094 128.917969 186.148438 128.761719 C 186.925781 128.605469 187.691406 128.410156 188.449219 128.179688 C 189.210938 127.949219 189.953125 127.683594 190.6875 127.378906 C 191.417969 127.074219 192.136719 126.734375 192.835938 126.359375 C 193.53125 125.984375 194.210938 125.578125 194.871094 125.136719 C 195.53125 124.695312 196.167969 124.226562 196.777344 123.722656 C 197.390625 123.21875 197.980469 122.6875 198.539062 122.125 C 199.101562 121.566406 199.632812 120.980469 200.136719 120.367188 C 200.636719 119.753906 201.109375 119.117188 201.550781 118.457031 C 201.992188 117.800781 202.398438 117.121094 202.773438 116.421875 C 203.148438 115.722656 203.488281 115.007812 203.792969 114.273438 C 204.09375 113.542969 204.363281 112.796875 204.59375 112.039062 C 204.824219 111.277344 205.019531 110.511719 205.175781 109.734375 C 205.328125 108.957031 205.445312 108.171875 205.527344 107.382812 C 205.605469 106.59375 205.644531 105.804688 205.648438 105.011719 C 205.644531 104.21875 205.605469 103.425781 205.527344 102.636719 C 205.449219 101.847656 205.328125 101.066406 205.175781 100.289062 C 205.019531 99.511719 204.824219 98.742188 204.59375 97.984375 C 204.363281 97.226562 204.09375 96.480469 203.792969 95.75 C 203.488281 95.015625 203.148438 94.300781 202.773438 93.601562 C 202.398438 92.902344 201.992188 92.222656 201.550781 91.5625 C 201.109375 90.90625 200.636719 90.269531 200.136719 89.65625 C 199.632812 89.042969 199.101562 88.457031 198.539062 87.894531 C 197.980469 87.335938 197.390625 86.804688 196.777344 86.300781 C 196.167969 85.796875 195.53125 85.324219 194.871094 84.882812 C 194.210938 84.445312 193.53125 84.035156 192.835938 83.660156 C 192.136719 83.289062 191.417969 82.949219 190.6875 82.644531 C 189.953125 82.339844 189.210938 82.074219 188.449219 81.839844 C 187.691406 81.609375 186.925781 81.417969 186.148438 81.261719 C 185.371094 81.105469 184.585938 80.988281 183.796875 80.910156 C 183.007812 80.832031 182.21875 80.789062 181.425781 80.789062 Z M 181.425781 80.789062"/></g><path fill="#B4E3FB" d="M 96.976562 148.140625 C 96.976562 148.613281 96.886719 149.0625 96.707031 149.496094 C 96.527344 149.933594 96.273438 150.316406 95.941406 150.648438 C 95.609375 150.980469 95.226562 151.234375 94.789062 151.414062 C 94.355469 151.59375 93.90625 151.683594 93.433594 151.683594 C 92.964844 151.683594 92.511719 151.59375 92.078125 151.414062 C 91.644531 151.234375 91.261719 150.980469 90.929688 150.648438 C 90.597656 150.316406 90.34375 149.933594 90.164062 149.496094 C 89.984375 149.0625 89.894531 148.613281 89.894531 148.140625 C 89.894531 147.671875 89.984375 147.21875 90.164062 146.785156 C 90.34375 146.351562 90.597656 145.96875 90.929688 145.636719 C 91.261719 145.304688 91.644531 145.050781 92.078125 144.871094 C 92.511719 144.691406 92.964844 144.601562 93.433594 144.601562 C 93.90625 144.601562 94.355469 144.691406 94.789062 144.871094 C 95.226562 145.050781 95.609375 145.304688 95.941406 145.636719 C 96.273438 145.96875 96.527344 146.351562 96.707031 146.785156 C 96.886719 147.21875 96.976562 147.671875 96.976562 148.140625 Z M 96.976562 148.140625"/><path fill="#B4E3FB" d="M 140.683594 172.941406 C 140.683594 173.25 140.625 173.550781 140.507812 173.839844 C 140.386719 174.125 140.21875 174.378906 139.996094 174.601562 C 139.777344 174.820312 139.523438 174.988281 139.234375 175.109375 C 138.949219 175.226562 138.648438 175.289062 138.335938 175.289062 C 138.027344 175.289062 137.726562 175.226562 137.4375 175.109375 C 137.152344 174.988281 136.898438 174.820312 136.679688 174.601562 C 136.457031 174.378906 136.289062 174.125 136.167969 173.839844 C 136.050781 173.550781 135.992188 173.25 135.992188 172.941406 C 135.992188 172.628906 136.050781 172.328125 136.167969 172.042969 C 136.289062 171.753906 136.457031 171.5 136.679688 171.28125 C 136.898438 171.0625 137.152344 170.890625 137.4375 170.773438 C 137.726562 170.652344 138.027344 170.59375 138.335938 170.59375 C 138.648438 170.59375 138.949219 170.652344 139.234375 170.773438 C 139.523438 170.890625 139.777344 171.0625 139.996094 171.28125 C 140.21875 171.5 140.386719 171.753906 140.507812 172.042969 C 140.625 172.328125 140.683594 172.628906 140.683594 172.941406 Z M 140.683594 172.941406"/><path fill="#B4E3FB" d="M 125.320312 200.707031 C 125.320312 201.097656 125.242188 201.476562 125.09375 201.839844 C 124.941406 202.203125 124.726562 202.523438 124.449219 202.804688 C 124.171875 203.082031 123.851562 203.296875 123.488281 203.445312 C 123.125 203.597656 122.746094 203.671875 122.351562 203.671875 C 121.957031 203.671875 121.578125 203.597656 121.214844 203.445312 C 120.851562 203.296875 120.53125 203.082031 120.253906 202.804688 C 119.976562 202.523438 119.761719 202.203125 119.609375 201.839844 C 119.460938 201.476562 119.382812 201.097656 119.382812 200.707031 C 119.382812 200.3125 119.460938 199.933594 119.609375 199.570312 C 119.761719 199.207031 119.976562 198.886719 120.253906 198.609375 C 120.53125 198.328125 120.851562 198.113281 121.214844 197.964844 C 121.578125 197.8125 121.957031 197.738281 122.351562 197.738281 C 122.746094 197.738281 123.125 197.8125 123.488281 197.964844 C 123.851562 198.113281 124.171875 198.328125 124.449219 198.609375 C 124.726562 198.886719 124.941406 199.207031 125.09375 199.570312 C 125.242188 199.933594 125.320312 200.3125 125.320312 200.707031 Z M 125.320312 200.707031"/></svg>