<svg xmlns="http://www.w3.org/2000/svg" width="224.88" viewBox="0 0 224.88 225" height="225" version="1.0"><defs><clipPath id="a"><path d="M 104 19.605469 L 107 19.605469 L 107 58 L 104 58 Z M 104 19.605469"/></clipPath><clipPath id="b"><path d="M 98 19.605469 L 113 19.605469 L 113 64 L 98 64 Z M 98 19.605469"/></clipPath><clipPath id="c"><path d="M 16.960938 98 L 62 98 L 62 114 L 16.960938 114 Z M 16.960938 98"/></clipPath><clipPath id="d"><path d="M 50 107 L 208.105469 107 L 208.105469 201 L 50 201 Z M 50 107"/></clipPath></defs><path fill="#E5F3FF" d="M 207.109375 216.507812 L 18.089844 216.507812 C 12.148438 216.507812 7.246094 211.605469 7.246094 205.664062 L 7.246094 19.652344 C 7.246094 13.707031 12.148438 8.808594 18.089844 8.808594 L 206.960938 8.808594 C 212.902344 8.808594 217.804688 13.707031 217.804688 19.652344 L 217.804688 205.515625 C 217.953125 211.605469 213.050781 216.507812 207.109375 216.507812"/><path fill="#E5F3FF" d="M 207.109375 12.074219 C 211.269531 12.074219 214.683594 15.492188 214.683594 19.652344 L 214.683594 205.664062 C 214.683594 209.824219 211.269531 213.238281 207.109375 213.238281 L 18.089844 213.238281 C 13.929688 213.238281 10.515625 209.824219 10.515625 205.664062 L 10.515625 19.652344 C 10.515625 15.492188 13.929688 12.074219 18.089844 12.074219 L 207.109375 12.074219 M 207.109375 5.09375 L 18.089844 5.09375 C 10.070312 5.09375 3.53125 11.628906 3.53125 19.652344 L 3.53125 205.664062 C 3.53125 213.683594 10.070312 220.222656 18.089844 220.222656 L 207.109375 220.222656 C 215.128906 220.222656 221.667969 213.683594 221.667969 205.664062 L 221.667969 19.652344 C 221.667969 11.628906 215.128906 5.09375 207.109375 5.09375"/><path fill="#FFD76B" d="M 147.542969 104.773438 C 147.539062 106.144531 147.46875 107.507812 147.332031 108.871094 C 147.195312 110.234375 146.992188 111.589844 146.722656 112.933594 C 146.449219 114.273438 146.117188 115.601562 145.714844 116.914062 C 145.316406 118.222656 144.851562 119.511719 144.324219 120.773438 C 143.796875 122.039062 143.210938 123.277344 142.558594 124.484375 C 141.910156 125.691406 141.207031 126.863281 140.441406 128 C 139.679688 129.140625 138.859375 130.238281 137.988281 131.292969 C 137.117188 132.351562 136.195312 133.363281 135.226562 134.332031 C 134.253906 135.300781 133.238281 136.21875 132.175781 137.085938 C 131.113281 137.953125 130.011719 138.765625 128.871094 139.527344 C 127.730469 140.285156 126.554688 140.988281 125.34375 141.632812 C 124.132812 142.277344 122.894531 142.863281 121.628906 143.382812 C 120.359375 143.90625 119.070312 144.367188 117.757812 144.761719 C 116.441406 145.160156 115.113281 145.492188 113.769531 145.757812 C 112.421875 146.023438 111.066406 146.222656 109.703125 146.355469 C 108.335938 146.488281 106.96875 146.554688 105.597656 146.554688 C 104.226562 146.554688 102.859375 146.484375 101.492188 146.351562 C 100.128906 146.214844 98.773438 146.015625 97.429688 145.746094 C 96.082031 145.476562 94.753906 145.144531 93.441406 144.746094 C 92.128906 144.347656 90.839844 143.886719 89.574219 143.363281 C 88.304688 142.835938 87.066406 142.253906 85.859375 141.605469 C 84.648438 140.960938 83.472656 140.257812 82.332031 139.496094 C 81.195312 138.734375 80.09375 137.917969 79.03125 137.046875 C 77.972656 136.179688 76.957031 135.261719 75.988281 134.292969 C 75.019531 133.324219 74.097656 132.308594 73.226562 131.25 C 72.359375 130.191406 71.542969 129.09375 70.78125 127.953125 C 70.015625 126.8125 69.3125 125.640625 68.664062 124.433594 C 68.019531 123.222656 67.433594 121.988281 66.90625 120.722656 C 66.382812 119.457031 65.921875 118.167969 65.523438 116.855469 C 65.121094 115.546875 64.789062 114.21875 64.519531 112.875 C 64.253906 111.53125 64.050781 110.179688 63.914062 108.816406 C 63.78125 107.453125 63.710938 106.085938 63.710938 104.714844 C 63.710938 103.34375 63.777344 101.976562 63.910156 100.613281 C 64.042969 99.25 64.242188 97.898438 64.511719 96.554688 C 64.777344 95.210938 65.109375 93.882812 65.503906 92.570312 C 65.902344 91.257812 66.363281 89.96875 66.886719 88.703125 C 67.410156 87.4375 67.992188 86.199219 68.636719 84.992188 C 69.285156 83.78125 69.988281 82.605469 70.746094 81.46875 C 71.507812 80.328125 72.324219 79.226562 73.191406 78.167969 C 74.058594 77.105469 74.980469 76.089844 75.949219 75.121094 C 76.914062 74.152344 77.929688 73.230469 78.988281 72.359375 C 80.046875 71.488281 81.148438 70.671875 82.285156 69.910156 C 83.425781 69.144531 84.597656 68.441406 85.808594 67.792969 C 87.015625 67.144531 88.253906 66.558594 89.519531 66.03125 C 90.785156 65.503906 92.074219 65.042969 93.386719 64.640625 C 94.699219 64.242188 96.027344 63.90625 97.371094 63.636719 C 98.714844 63.367188 100.070312 63.164062 101.4375 63.027344 C 102.800781 62.890625 104.167969 62.820312 105.539062 62.816406 C 106.917969 62.808594 108.292969 62.871094 109.664062 63 C 111.035156 63.128906 112.398438 63.324219 113.75 63.585938 C 115.101562 63.851562 116.4375 64.179688 117.757812 64.574219 C 119.078125 64.96875 120.375 65.429688 121.648438 65.953125 C 122.921875 66.476562 124.167969 67.058594 125.382812 67.707031 C 126.597656 68.351562 127.78125 69.058594 128.925781 69.820312 C 130.074219 70.582031 131.179688 71.402344 132.246094 72.273438 C 133.308594 73.144531 134.328125 74.070312 135.304688 75.042969 C 136.277344 76.015625 137.203125 77.035156 138.074219 78.097656 C 138.949219 79.160156 139.765625 80.265625 140.53125 81.410156 C 141.292969 82.558594 142 83.738281 142.648438 84.953125 C 143.292969 86.167969 143.878906 87.410156 144.402344 88.683594 C 144.925781 89.957031 145.386719 91.25 145.78125 92.570312 C 146.179688 93.886719 146.507812 95.222656 146.769531 96.574219 C 147.035156 97.921875 147.230469 99.285156 147.359375 100.652344 C 147.488281 102.023438 147.550781 103.394531 147.542969 104.773438 Z M 147.542969 104.773438"/><g clip-path="url(#a)"><path fill="#FFD76B" d="M 104.847656 19.824219 L 106.234375 19.824219 C 106.339844 19.824219 106.433594 19.863281 106.507812 19.9375 C 106.585938 20.011719 106.621094 20.105469 106.621094 20.210938 L 106.621094 57.082031 C 106.621094 57.1875 106.585938 57.28125 106.507812 57.355469 C 106.433594 57.433594 106.339844 57.472656 106.234375 57.472656 L 104.847656 57.472656 C 104.738281 57.472656 104.648438 57.433594 104.570312 57.355469 C 104.496094 57.28125 104.457031 57.1875 104.457031 57.082031 L 104.457031 20.210938 C 104.457031 20.105469 104.496094 20.011719 104.570312 19.9375 C 104.648438 19.863281 104.738281 19.824219 104.847656 19.824219 Z M 104.847656 19.824219"/></g><g clip-path="url(#b)"><path transform="matrix(.43301 0 0 .43253 17.033 19.607)" fill="none" d="M 202.800755 0.501475 L 206.00326 0.501475 C 206.246831 0.501475 206.463338 0.591786 206.63474 0.763378 C 206.815163 0.93497 206.896353 1.151718 206.896353 1.39556 L 206.896353 86.640678 C 206.896353 86.884519 206.815163 87.101267 206.63474 87.272859 C 206.463338 87.453482 206.246831 87.543793 206.00326 87.543793 L 202.800755 87.543793 C 202.548163 87.543793 202.340677 87.453482 202.160254 87.272859 C 201.988852 87.101267 201.898641 86.884519 201.898641 86.640678 L 201.898641 1.39556 C 201.898641 1.151718 201.988852 0.93497 202.160254 0.763378 C 202.340677 0.591786 202.548163 0.501475 202.800755 0.501475 Z M 202.800755 0.501475" stroke="#FFAE46" stroke-miterlimit="10"/></g><path transform="matrix(.38952 -.18893 .18914 .38909 -8.601 37.99)" fill="#FFD76B" d="M 172.702197 91.505651 L 175.902342 91.503427 C 176.144441 91.50051 176.363322 91.586713 176.538809 91.762281 C 176.714297 91.93785 176.80142 92.150827 176.80018 92.401214 L 176.799764 138.994588 C 176.802468 139.236851 176.708018 139.452016 176.532417 139.627778 C 176.356816 139.803539 176.143909 139.890908 175.90181 139.893826 L 172.705609 139.887926 C 172.455395 139.886903 172.236515 139.8007 172.061027 139.625131 C 171.88554 139.449563 171.798416 139.236586 171.799656 138.986199 L 171.796128 92.400949 C 171.797368 92.150562 171.887874 91.943521 172.063475 91.767759 C 172.239075 91.591998 172.451983 91.504629 172.702197 91.505651 Z M 172.702197 91.505651" stroke="#FFAE46" stroke-miterlimit="10"/><path transform="matrix(.38952 -.18893 .18914 .38909 -52.509 70.776)" fill="#FFD76B" d="M 287.097589 350.101882 L 290.297735 350.099658 C 290.547949 350.100681 290.758714 350.182944 290.934202 350.358512 C 291.109689 350.53408 291.204928 350.750998 291.203688 351.001385 L 291.195156 397.590818 C 291.197861 397.833081 291.111525 398.052187 290.935925 398.227949 C 290.760324 398.40371 290.547416 398.491079 290.297202 398.490056 L 287.097057 398.49228 C 286.846843 398.491258 286.640022 398.400871 286.464535 398.225302 C 286.289047 398.049734 286.201924 397.836757 286.199219 397.594494 L 286.199636 351.00112 C 286.200876 350.750733 286.283266 350.539751 286.458867 350.36399 C 286.634468 350.188229 286.847375 350.100859 287.097589 350.101882 Z M 287.097589 350.101882" stroke="#FFAE46" stroke-miterlimit="10"/><path transform="matrix(.40917 .14153 -.14169 .40872 28.42 -36.881)" fill="#FFD76B" d="M 278.398757 88.898069 L 281.597269 88.899132 C 281.845503 88.899189 282.057706 88.988181 282.233879 89.166108 C 282.410053 89.344035 282.50098 89.551481 282.501094 89.799932 L 282.501051 136.391784 C 282.501164 136.640234 282.412395 136.852562 282.234744 137.028767 C 282.057093 137.204972 281.846935 137.287303 281.598701 137.287246 L 278.40019 137.286183 C 278.151956 137.286126 277.942708 137.205668 277.766534 137.027741 C 277.590361 136.849814 277.499433 136.642368 277.49932 136.393917 L 277.499363 89.802065 C 277.49925 89.553615 277.588018 89.341287 277.765669 89.165082 C 277.943321 88.988877 278.150523 88.898012 278.398757 88.898069 Z M 278.398757 88.898069" stroke="#FFAE46" stroke-miterlimit="10"/><path transform="matrix(.40917 .14153 -.14169 .40872 63.452 -16.12)" fill="#FFD76B" d="M 176.399282 352.696155 L 179.597794 352.697218 C 179.846028 352.697275 180.058232 352.786267 180.234405 352.964194 C 180.410578 353.142121 180.501506 353.349567 180.501619 353.598018 L 180.501576 400.18987 C 180.501689 400.43832 180.412921 400.650648 180.23527 400.826853 C 180.057618 401.003057 179.850416 401.093922 179.602182 401.093865 L 176.40367 401.092803 C 176.155436 401.092746 175.943233 401.003754 175.76706 400.825826 C 175.590887 400.647899 175.499959 400.440453 175.499845 400.192003 L 175.499888 353.600151 C 175.499775 353.3517 175.588544 353.139373 175.766195 352.963168 C 175.935321 352.789915 176.151048 352.696098 176.399282 352.696155 Z M 176.399282 352.696155" stroke="#FFAE46" stroke-miterlimit="10"/><path transform="matrix(.18914 .38909 -.38952 .18893 165.989 -95.143)" fill="#FFD76B" d="M 359.202459 161.102367 L 362.396676 161.098991 C 362.647063 161.100231 362.866169 161.186567 363.04193 161.362168 C 363.217692 161.537768 363.305061 161.750676 363.304038 162.00089 L 363.300189 208.591052 C 363.299167 208.841266 363.20878 209.048087 363.033211 209.223575 C 362.857643 209.399062 362.65279 209.490131 362.402403 209.48889 L 359.200061 209.488321 C 358.949675 209.487081 358.738693 209.404691 358.562931 209.22909 C 358.38717 209.053489 358.299801 208.840582 358.300823 208.590368 L 358.304672 162.000205 C 358.305695 161.749991 358.387958 161.539225 358.563526 161.363738 C 358.739094 161.18825 358.952072 161.101127 359.202459 161.102367 Z M 359.202459 161.102367" stroke="#FFAE46" stroke-miterlimit="10"/><path transform="matrix(.18914 .38909 -.38952 .18893 147.412 33.448)" fill="#FFD76B" d="M 100.601556 275.496832 L 103.803897 275.497401 C 104.04616 275.494697 104.261326 275.589147 104.437087 275.764748 C 104.612848 275.940349 104.700218 276.153256 104.699195 276.40347 L 104.699287 322.985518 C 104.698264 323.235732 104.61206 323.454612 104.436492 323.6301 C 104.260924 323.805587 104.047947 323.892711 103.79756 323.891471 L 100.595218 323.890902 C 100.352955 323.893606 100.13779 323.799156 99.962028 323.623555 C 99.786267 323.447954 99.698898 323.235047 99.69598 322.992948 L 99.699829 276.402785 C 99.700852 276.152571 99.783115 275.941806 99.962623 275.758203 C 100.138192 275.582716 100.351169 275.495592 100.601556 275.496832 Z M 100.601556 275.496832" stroke="#FFAE46" stroke-miterlimit="10"/><path transform="matrix(-.14169 .40872 -.40917 -.14153 335.685 21.64)" fill="#FFD76B" d="M 361.799797 271.795747 L 365.004052 271.803138 C 365.252502 271.803024 365.461878 271.883269 365.638083 272.06092 C 365.814287 272.238571 365.896618 272.448729 365.896561 272.696963 L 365.899316 319.29344 C 365.899259 319.541674 365.810267 319.753877 365.640874 319.927095 C 365.462947 320.103269 365.244015 320.188627 364.995565 320.188741 L 361.802796 320.186919 C 361.554345 320.187032 361.342017 320.098264 361.168764 319.929137 C 360.99256 319.751486 360.898743 319.535759 360.8988 319.287525 L 360.898997 272.699572 C 360.899054 272.451338 360.988046 272.239135 361.165973 272.062961 C 361.335366 271.889743 361.551346 271.79586 361.799797 271.795747 Z M 361.799797 271.795747" stroke="#FFAE46" stroke-miterlimit="10"/><path transform="matrix(-.1429 .40658 -.40703 -.14274 142.311 70.832)" fill="#FFD76B" d="M 98.001844 169.796486 L 101.201078 169.796195 C 101.450463 169.795017 101.655416 169.886214 101.833044 170.063779 C 102.010672 170.241344 102.102766 170.448937 102.103771 170.698105 L 102.099701 217.29277 C 102.100706 217.541938 102.012288 217.755321 101.831446 217.924374 C 101.662157 218.098969 101.445766 218.19413 101.204935 218.192304 L 98.005701 218.192595 C 97.753317 218.185229 97.54281 218.105579 97.365182 217.928014 C 97.187553 217.750449 97.104013 217.539853 97.103008 217.290685 L 97.098525 170.699023 C 97.09752 170.449855 97.185938 170.236472 97.36378 170.058875 C 97.544622 169.889821 97.752459 169.797663 98.001844 169.796486 Z M 98.001844 169.796486" stroke="#FFAE46" stroke-miterlimit="10"/><path transform="matrix(.43301 0 0 .43253 17.033 19.607)" fill="#FFD76B" d="M 205.299611 316.303073 L 208.502116 316.303073 C 208.745687 316.303073 208.962194 316.384353 209.133596 316.564976 C 209.314019 316.736568 209.40423 316.953316 209.40423 317.197157 L 209.40423 402.442275 C 209.40423 402.686117 209.314019 402.902864 209.133596 403.074457 C 208.962194 403.25508 208.745687 403.33636 208.502116 403.33636 L 205.299611 403.33636 C 205.047019 403.33636 204.839533 403.25508 204.65911 403.074457 C 204.487708 402.902864 204.397497 402.686117 204.397497 402.442275 L 204.397497 317.197157 C 204.397497 316.953316 204.487708 316.736568 204.65911 316.564976 C 204.839533 316.384353 205.047019 316.303073 205.299611 316.303073 Z M 205.299611 316.303073" stroke="#FFAE46" stroke-miterlimit="10"/><path transform="matrix(0 .43253 -.43301 0 277.662 -62.184)" fill="#FFD76B" d="M 384.502937 198.496176 L 387.699967 198.496176 C 387.95284 198.496176 388.160557 198.586388 388.332149 198.76681 C 388.512772 198.938212 388.603083 199.154719 388.603083 199.39829 L 388.603083 284.639056 C 388.603083 284.891648 388.512772 285.099134 388.332149 285.279557 C 388.160557 285.450959 387.95284 285.54117 387.699967 285.54117 L 384.502937 285.54117 C 384.250064 285.54117 384.042348 285.450959 383.861724 285.279557 C 383.690132 285.099134 383.599821 284.891648 383.599821 284.639056 L 383.599821 199.39829 C 383.599821 199.154719 383.690132 198.938212 383.861724 198.76681 C 384.042348 198.586388 384.250064 198.496176 384.502937 198.496176 Z M 384.502937 198.496176" stroke="#FFAE46" stroke-miterlimit="10"/><path fill="#FFD76B" d="M 54.921875 105.203125 L 54.921875 106.589844 C 54.921875 106.695312 54.882812 106.789062 54.808594 106.863281 C 54.730469 106.941406 54.640625 106.976562 54.53125 106.976562 L 17.621094 106.976562 C 17.515625 106.976562 17.421875 106.941406 17.347656 106.863281 C 17.269531 106.789062 17.230469 106.695312 17.230469 106.589844 L 17.230469 105.203125 C 17.230469 105.097656 17.269531 105.003906 17.347656 104.929688 C 17.421875 104.855469 17.515625 104.816406 17.621094 104.816406 L 54.53125 104.816406 C 54.640625 104.816406 54.730469 104.855469 54.808594 104.929688 C 54.882812 105.003906 54.921875 105.097656 54.921875 105.203125 Z M 54.921875 105.203125"/><g clip-path="url(#c)"><path transform="matrix(0 .43253 -.43301 0 141.956 75.49)" fill="none" d="M 68.695529 200.998453 L 71.90159 200.998453 C 72.145432 200.998453 72.362179 201.088664 72.533771 201.260066 C 72.714395 201.440489 72.795675 201.647975 72.795675 201.900567 L 72.795675 287.141333 C 72.795675 287.384904 72.714395 287.601411 72.533771 287.772813 C 72.362179 287.953236 72.145432 288.043447 71.90159 288.043447 L 68.695529 288.043447 C 68.451687 288.043447 68.234939 287.953236 68.063347 287.772813 C 67.891755 287.601411 67.801444 287.384904 67.801444 287.141333 L 67.801444 201.900567 C 67.801444 201.647975 67.891755 201.440489 68.063347 201.260066 C 68.234939 201.088664 68.451687 200.998453 68.695529 200.998453 Z M 68.695529 200.998453" stroke="#FFAE46" stroke-miterlimit="10"/></g><path transform="matrix(-.30618 .30584 -.30618 -.30584 368.508 158.406)" fill="#FFD76B" d="M 341.600264 313.004264 L 344.797876 312.996107 C 345.046788 313.002352 345.257363 313.085207 345.435973 313.263816 C 345.614582 313.442426 345.697437 313.653001 345.703681 313.901913 L 345.701055 399.139539 C 345.694535 399.388458 345.611446 399.599125 345.432638 399.777933 C 345.260216 399.950354 345.043163 400.039829 344.80063 400.039964 L 341.596639 400.041742 C 341.354106 400.041876 341.137152 399.952643 340.964922 399.780412 C 340.786312 399.601802 340.703457 399.391228 340.697213 399.142315 L 340.699839 313.90469 C 340.69998 313.649391 340.783069 313.438724 340.961877 313.259917 C 341.134299 313.087495 341.351352 312.99802 341.600264 313.004264 Z M 341.600264 313.004264" stroke="#FFAE46" stroke-miterlimit="10"/><path transform="matrix(-.30618 .30584 -.30618 -.30584 134.293 63.64)" fill="#FFD76B" d="M 116.500932 91.50118 L 119.704923 91.499402 C 119.947456 91.499267 120.16441 91.588501 120.33664 91.760732 C 120.51525 91.939341 120.598105 92.149916 120.604349 92.398828 L 120.601723 177.636454 C 120.601582 177.891752 120.512114 178.096041 120.333306 178.274848 C 120.160884 178.44727 119.95021 178.543124 119.701298 178.53688 L 116.497307 178.538658 C 116.254774 178.538792 116.03782 178.449558 115.865589 178.277328 C 115.68698 178.098718 115.604125 177.888143 115.597881 177.639231 L 115.600507 92.401605 C 115.600648 92.146307 115.690116 91.942019 115.868924 91.763211 C 116.041346 91.590789 116.25202 91.494936 116.500932 91.50118 Z M 116.500932 91.50118" stroke="#FFAE46" stroke-miterlimit="10"/><path transform="matrix(-.30618 -.30584 .30618 -.30584 -16.482 298.719)" fill="#FFD76B" d="M 115.801782 312.303474 L 118.999387 312.298866 C 119.248306 312.305387 119.458973 312.388475 119.637781 312.567283 C 119.810202 312.739705 119.899677 312.956758 119.899812 313.199291 L 119.902438 398.436917 C 119.902579 398.692215 119.813338 398.896404 119.634729 399.075014 C 119.456119 399.253623 119.251931 399.342864 118.996632 399.342722 L 115.805406 399.340951 C 115.550108 399.34081 115.339441 399.257721 115.160633 399.078913 C 114.988212 398.906491 114.898737 398.689438 114.904981 398.440526 L 114.902355 313.2029 C 114.902213 312.947602 114.985068 312.737027 115.163678 312.558418 C 115.335909 312.386187 115.552862 312.296953 115.801782 312.303474 Z M 115.801782 312.303474" stroke="#FFAE46" stroke-miterlimit="10"/><path transform="matrix(-.30618 -.30584 .30618 -.30584 216.175 200.319)" fill="#FFD76B" d="M 337.401852 87.198635 L 340.605843 87.200413 C 340.848377 87.200548 341.059043 87.283637 341.237851 87.462444 C 341.410273 87.634866 341.499748 87.851919 341.499883 88.094452 L 341.49613 173.338457 C 341.50265 173.587376 341.413416 173.80433 341.241186 173.976561 C 341.062576 174.15517 340.852001 174.238025 340.596703 174.237884 L 337.399098 174.242492 C 337.150179 174.235971 336.939512 174.152882 336.760704 173.974074 C 336.588282 173.801653 336.498808 173.5846 336.498673 173.342066 L 336.502426 88.098062 C 336.495905 87.849142 336.591525 87.638575 336.763756 87.466344 C 336.942365 87.287734 337.15294 87.204879 337.401852 87.198635 Z M 337.401852 87.198635" stroke="#FFAE46" stroke-miterlimit="10"/><g clip-path="url(#d)"><path fill="#6B99D2" d="M 71.160156 160.222656 L 71.808594 160.222656 C 71.40625 158.925781 71.113281 157.609375 70.925781 156.265625 C 70.734375 154.921875 70.65625 153.570312 70.683594 152.214844 C 70.710938 150.859375 70.847656 149.515625 71.09375 148.179688 C 71.335938 146.847656 71.6875 145.542969 72.140625 144.261719 C 72.59375 142.984375 73.148438 141.75 73.800781 140.5625 C 74.453125 139.371094 75.195312 138.242188 76.03125 137.171875 C 76.863281 136.101562 77.777344 135.105469 78.773438 134.183594 C 79.765625 133.257812 80.828125 132.421875 81.957031 131.667969 C 83.085938 130.914062 84.265625 130.253906 85.503906 129.691406 C 86.738281 129.125 88.007812 128.664062 89.316406 128.304688 C 90.625 127.945312 91.957031 127.691406 93.304688 127.542969 C 94.65625 127.398438 96.007812 127.359375 97.363281 127.429688 C 98.71875 127.5 100.0625 127.675781 101.390625 127.960938 C 102.714844 128.246094 104.011719 128.636719 105.277344 129.128906 C 106.542969 129.625 107.757812 130.214844 108.929688 130.902344 C 110.097656 131.589844 111.207031 132.367188 112.25 133.234375 C 112.484375 132.195312 112.769531 131.171875 113.105469 130.160156 C 113.4375 129.152344 113.820312 128.160156 114.25 127.1875 C 114.679688 126.214844 115.15625 125.265625 115.679688 124.335938 C 116.203125 123.410156 116.769531 122.511719 117.378906 121.640625 C 117.988281 120.769531 118.640625 119.929688 119.332031 119.121094 C 120.023438 118.3125 120.753906 117.539062 121.523438 116.800781 C 122.289062 116.0625 123.089844 115.363281 123.925781 114.703125 C 124.761719 114.042969 125.625 113.425781 126.523438 112.851562 C 127.417969 112.273438 128.339844 111.742188 129.285156 111.257812 C 130.234375 110.769531 131.199219 110.332031 132.191406 109.941406 C 133.179688 109.546875 134.1875 109.203125 135.210938 108.910156 C 136.234375 108.613281 137.269531 108.371094 138.316406 108.175781 C 139.363281 107.980469 140.417969 107.839844 141.476562 107.746094 C 142.539062 107.65625 143.601562 107.617188 144.667969 107.628906 C 145.730469 107.636719 146.792969 107.703125 147.851562 107.816406 C 148.910156 107.929688 149.960938 108.097656 151.003906 108.3125 C 152.046875 108.53125 153.074219 108.796875 154.09375 109.113281 C 155.109375 109.429688 156.109375 109.792969 157.089844 110.207031 C 158.070312 110.621094 159.027344 111.082031 159.964844 111.585938 C 160.902344 112.09375 161.8125 112.644531 162.695312 113.238281 C 163.578125 113.835938 164.429688 114.472656 165.25 115.148438 C 166.070312 115.828125 166.855469 116.542969 167.605469 117.296875 C 168.359375 118.050781 169.070312 118.839844 169.746094 119.660156 C 170.421875 120.484375 171.054688 121.339844 171.644531 122.222656 C 172.234375 123.109375 172.78125 124.019531 173.285156 124.957031 C 173.789062 125.894531 174.242188 126.855469 174.652344 127.835938 C 175.0625 128.820312 175.421875 129.816406 175.734375 130.835938 C 176.046875 131.851562 176.308594 132.882812 176.519531 133.925781 C 176.734375 134.964844 176.894531 136.015625 177.003906 137.074219 C 177.113281 138.132812 177.171875 139.195312 177.175781 140.257812 C 177.183594 141.320312 177.136719 142.382812 177.042969 143.441406 C 176.945312 144.5 176.796875 145.554688 176.597656 146.597656 C 177.945312 146.386719 179.300781 146.285156 180.667969 146.296875 C 182.175781 146.292969 183.671875 146.414062 185.160156 146.660156 C 186.648438 146.902344 188.105469 147.269531 189.53125 147.753906 C 190.957031 148.238281 192.335938 148.835938 193.664062 149.550781 C 194.992188 150.261719 196.25 151.078125 197.445312 152 C 198.636719 152.921875 199.746094 153.933594 200.769531 155.035156 C 201.796875 156.140625 202.722656 157.320312 203.554688 158.578125 C 204.386719 159.832031 205.105469 161.148438 205.71875 162.527344 C 206.332031 163.902344 206.824219 165.316406 207.203125 166.777344 C 207.582031 168.234375 207.835938 169.710938 207.972656 171.210938 C 208.105469 172.710938 208.113281 174.210938 208 175.714844 C 207.882812 177.214844 207.648438 178.695312 207.285156 180.160156 C 206.925781 181.621094 206.449219 183.042969 205.855469 184.425781 C 205.257812 185.808594 204.554688 187.136719 203.738281 188.402344 C 202.925781 189.667969 202.011719 190.859375 201 191.976562 C 199.988281 193.09375 198.890625 194.117188 197.710938 195.054688 C 196.53125 195.988281 195.28125 196.820312 193.960938 197.550781 C 192.289062 198.667969 190.492188 199.519531 188.566406 200.101562 C 186.640625 200.683594 184.671875 200.972656 182.660156 200.96875 L 71.160156 200.96875 C 70.492188 200.964844 69.824219 200.933594 69.160156 200.867188 C 68.496094 200.796875 67.835938 200.699219 67.183594 200.570312 C 66.527344 200.4375 65.882812 200.273438 65.242188 200.082031 C 64.605469 199.886719 63.976562 199.660156 63.359375 199.40625 C 62.746094 199.148438 62.140625 198.863281 61.554688 198.550781 C 60.964844 198.234375 60.394531 197.890625 59.839844 197.519531 C 59.285156 197.148438 58.75 196.753906 58.230469 196.328125 C 57.714844 195.90625 57.222656 195.460938 56.75 194.988281 C 56.277344 194.515625 55.832031 194.023438 55.40625 193.507812 C 54.984375 192.992188 54.585938 192.457031 54.214844 191.902344 C 53.84375 191.347656 53.5 190.777344 53.183594 190.191406 C 52.871094 189.601562 52.585938 189 52.328125 188.382812 C 52.070312 187.769531 51.847656 187.140625 51.652344 186.503906 C 51.457031 185.867188 51.292969 185.21875 51.164062 184.566406 C 51.03125 183.914062 50.933594 183.253906 50.867188 182.589844 C 50.800781 181.925781 50.765625 181.261719 50.765625 180.59375 C 50.765625 179.929688 50.800781 179.261719 50.867188 178.597656 C 50.933594 177.9375 51.03125 177.277344 51.164062 176.625 C 51.292969 175.96875 51.457031 175.324219 51.652344 174.6875 C 51.847656 174.046875 52.070312 173.421875 52.328125 172.804688 C 52.585938 172.191406 52.871094 171.589844 53.183594 171 C 53.5 170.414062 53.84375 169.839844 54.214844 169.285156 C 54.585938 168.734375 54.984375 168.199219 55.40625 167.683594 C 55.832031 167.167969 56.277344 166.675781 56.75 166.203125 C 57.222656 165.730469 57.714844 165.285156 58.230469 164.859375 C 58.75 164.4375 59.285156 164.039062 59.839844 163.667969 C 60.394531 163.296875 60.964844 162.957031 61.554688 162.640625 C 62.140625 162.328125 62.746094 162.039062 63.359375 161.785156 C 63.976562 161.53125 64.605469 161.304688 65.242188 161.109375 C 65.882812 160.914062 66.527344 160.753906 67.183594 160.621094 C 67.835938 160.492188 68.496094 160.390625 69.160156 160.324219 C 69.824219 160.257812 70.492188 160.222656 71.160156 160.222656 Z M 71.160156 160.222656"/></g></svg>